<svg width="829" height="618" viewBox="0 0 829 618" fill="none" xmlns="http://www.w3.org/2000/svg">
<g filter="url(#filter0_d_3_76)">
<rect x="146" y="30.999" width="526" height="526" rx="263" fill="#F3EFFA"/>
<rect x="140.5" y="25.499" width="537" height="537" rx="268.5" stroke="#CBB3F7" stroke-width="11"/>
</g>
<path d="M623.49 39.3703C629.373 35.8692 635.737 33.145 642.417 31.2675C646.658 29.9861 651.428 28.75 656.556 27.5877C662.036 26.3139 667.616 25.4123 673.256 24.8892C676.293 24.6184 679.354 24.5413 682.417 24.6586C685.597 24.7437 688.774 25.1047 691.908 25.7371C695.126 26.3496 698.272 27.3254 701.28 28.6439C704.337 29.9347 707.213 31.6142 709.83 33.6363L710.254 33.9819C710.101 34.0792 709.919 34.1543 709.75 34.2483C703.394 37.8312 698.495 43.3539 695.789 49.9856C694.454 53.3647 693.858 56.9967 694.035 60.6603C694.218 64.4979 695.416 68.2632 697.516 71.5968C698.568 73.3848 699.904 75.0102 701.471 76.4117C703.216 77.9944 705.298 79.1858 707.557 79.8952C709.766 80.5313 712.073 80.7151 714.325 80.4344C716.577 80.1536 718.725 79.4148 720.627 78.2662C724.072 76.1836 726.606 72.9736 727.788 69.1941C728.892 65.7399 729.27 62.0839 728.901 58.4351C728.571 54.8454 727.671 51.3054 726.231 47.9403C724.425 43.7441 721.901 39.8487 718.77 36.4216C719.759 36.1142 720.77 35.8714 721.798 35.6948C727.85 34.6104 734.128 34.8476 740.176 36.3891C745.824 37.79 751.253 40.0002 756.276 42.9446C760.676 45.4946 764.757 48.5417 768.429 52.0184C771.481 55.0399 774.255 58.3106 776.717 61.7909C780.626 67.1994 783.924 72.9829 786.552 79.0379C788.348 83.087 789.828 87.2503 790.98 91.4919C791.881 94.9011 792.413 97.3959 792.777 99.3405C793.122 101.023 793.303 102.14 793.48 102.999L792.53 102.045C789.819 99.3244 787.322 96.906 785.166 94.913C780.853 90.9424 777.925 88.5799 777.422 89.0237C776.919 89.4675 778.908 92.3607 782.559 96.8225C784.381 99.0689 786.609 101.673 789.142 104.534L790.103 105.619C790.511 106.09 790.959 106.528 791.442 106.928C791.757 107.179 792.092 107.405 792.445 107.602C792.893 107.854 793.373 108.046 793.87 108.171C794.896 108.431 795.968 108.37 796.931 107.999C798.122 107.452 799.188 106.688 800.072 105.749L802.309 103.747C814.498 92.4123 823.611 82.5196 822.594 81.6485C821.577 80.7774 810.861 89.2424 798.656 100.574L797.065 102.081C797.116 101.152 797.103 100.218 797.027 99.2856C796.858 96.5036 796.47 93.7301 795.868 90.9889C794.924 86.4689 793.554 82.0266 791.776 77.7183C789.169 71.2506 785.793 65.073 781.718 59.3132C779.051 55.5131 776.032 51.9481 772.699 48.6646C768.664 44.8011 764.162 41.4224 759.298 38.6073C753.701 35.3237 747.646 32.8695 741.346 31.3301C734.344 29.5695 727.081 29.3325 720.091 30.6364C718.075 31.0039 716.111 31.5691 714.228 32.3231C713.659 31.8508 713.09 31.3786 712.496 30.9495C709.531 28.7226 706.284 26.8798 702.842 25.4706C699.51 24.0917 696.037 23.0862 692.494 22.4745C689.118 21.8605 685.703 21.5418 682.29 21.5224C679.092 21.4599 675.902 21.6016 672.74 21.9464C666.982 22.5941 661.299 23.6526 655.734 25.1134C650.544 26.4346 645.801 27.8215 641.506 29.2743C634.786 31.4225 628.469 34.5293 622.76 38.4942C621.262 39.5666 619.857 40.7516 618.555 42.0389C617.699 42.9412 617.296 43.3896 617.36 43.4995C617.424 43.6094 619.474 41.8907 623.522 39.377L623.49 39.3703ZM713.14 38.8494C713.611 38.5763 714.108 38.3409 714.606 38.1056C717.672 41.3914 720.105 45.1725 721.781 49.259C722.998 52.2458 723.742 55.3775 723.985 58.5455C724.255 61.6532 723.887 64.7586 722.902 67.6833C721.983 70.468 720.073 72.8193 717.502 74.332C716.248 75.0897 714.834 75.578 713.35 75.765C711.866 75.9521 710.346 75.8336 708.889 75.4174C706.029 74.3029 703.662 72.216 702.249 69.5633C700.618 66.9008 699.706 63.905 699.6 60.8616C699.519 57.841 700.07 54.8585 701.221 52.0929C702.358 49.3086 703.97 46.7407 705.99 44.4916C708 42.2228 710.406 40.313 713.107 38.8427" fill="#CAACFF" fill-opacity="0.5"/>
<path d="M190.443 609.128C190.797 611.776 188.955 614.207 186.302 614.135C183.161 614.05 180.03 613.515 177.004 612.539C172.442 611.067 168.224 608.628 164.633 605.385C161.041 602.141 158.158 598.167 156.178 593.731C154.851 590.759 153.95 587.626 153.495 584.428C153.121 581.805 155.277 579.691 157.906 579.732V579.732C160.545 579.774 162.647 581.978 163.169 584.587C163.531 586.397 164.094 588.167 164.851 589.864C166.267 593.034 168.327 595.874 170.893 598.192C173.46 600.51 176.474 602.253 179.734 603.304C181.44 603.854 183.193 604.209 184.96 604.363C187.627 604.597 190.086 606.459 190.443 609.128V609.128Z" fill="#F3EFFA"/>
<ellipse cx="36.0001" cy="565.595" rx="6" ry="5.70042" fill="url(#paint0_linear_3_76)" fill-opacity="0.9"/>
<ellipse cx="67.0001" cy="537.092" rx="6" ry="5.70042" fill="url(#paint1_linear_3_76)"/>
<ellipse cx="67.0001" cy="537.092" rx="6" ry="5.70042" fill="url(#paint2_linear_3_76)"/>
<ellipse cx="20.0001" cy="464.887" rx="6" ry="5.70042" fill="url(#paint3_linear_3_76)"/>
<ellipse cx="20.0001" cy="464.887" rx="6" ry="5.70042" fill="url(#paint4_linear_3_76)"/>
<ellipse cx="20.0001" cy="464.887" rx="6" ry="5.70042" fill="url(#paint5_linear_3_76)" fill-opacity="0.9"/>
<ellipse cx="53.5001" cy="502.415" rx="4.5" ry="4.27531" fill="url(#paint6_linear_3_76)"/>
<ellipse cx="10.0001" cy="519.041" rx="10" ry="9.50069" fill="url(#paint7_linear_3_76)"/>
<ellipse cx="59.0001" cy="459.187" rx="10" ry="9.50069" fill="url(#paint8_linear_3_76)"/>
<ellipse cx="59.0001" cy="459.187" rx="10" ry="9.50069" fill="url(#paint9_linear_3_76)"/>
<g clip-path="url(#clip0_3_76)">
<g clip-path="url(#clip1_3_76)">
<path d="M304.678 169.084L312.267 203.648L296.126 251.757L270.121 200.067L273.729 170.08L304.678 169.084Z" fill="#FDB4B4"/>
<path d="M313.677 201.857H268.776V256.009H313.677V201.857Z" fill="#8C4FF6"/>
<path d="M295.213 186.494C312.148 186.494 325.877 172.791 325.877 155.887C325.877 138.983 312.148 125.279 295.213 125.279C278.277 125.279 264.548 138.983 264.548 155.887C264.548 172.791 278.277 186.494 295.213 186.494Z" fill="#FDB4B4"/>
<path d="M268.521 178.646C268.521 178.646 245.664 136.511 266.272 116.235C286.881 95.9583 303.424 109.319 303.424 109.319L312.871 108.938C312.871 108.938 314.841 116.359 318.018 112.342C321.195 108.325 326.936 122.955 326.936 122.955C337.592 142.109 300.653 146.4 300.653 146.4C300.653 146.4 303.321 154.881 300.609 156.657C297.898 158.433 290.655 165.114 290.655 165.114L284.171 170.002L280.318 164.142C280.318 164.142 276.293 160.971 274.26 162.303C272.227 163.635 275.024 181.162 275.024 181.162L268.521 178.646Z" fill="#2E2E41"/>
<path d="M231.735 488.628L220.011 663.183L248.832 664.158L286.934 490.091L231.735 488.628Z" fill="#2E2E41"/>
<path d="M301.589 487.653L289.865 662.207L318.686 663.182L356.788 489.115L301.589 487.653Z" fill="#2E2E41"/>
<path d="M224.675 528.509L240.018 338.394L216.489 239.397C214.461 224.681 223.75 210.756 238.087 206.959L261.11 200.863L271.301 190.691L294.479 241.781L308.955 190.73L320.245 198.925L353.729 213.67L353.713 214.016L348.342 333.603L360.331 526.816L359.8 526.823L224.675 528.509Z" fill="#E8E9EA"/>
<path d="M207.969 427.541C207.615 422.638 208.443 417.722 210.383 413.204L204.155 362.206L228.553 359.958L232.243 411.931C234.695 416.192 236.089 420.977 236.308 425.887C237.026 438.166 231.263 448.486 223.437 448.942C215.61 449.398 208.685 439.816 207.969 427.541Z" fill="#FDB4B4"/>
<path d="M362.499 435.026C362.199 430.12 363.08 425.213 365.07 420.716L359.399 369.654L383.82 367.671L386.942 419.682C389.347 423.969 390.689 428.769 390.854 433.681C391.438 445.967 385.563 456.224 377.732 456.595C369.901 456.965 363.08 447.309 362.499 435.026Z" fill="#FDB4B4"/>
<path d="M204.055 407.089L203.972 406.649L191.257 338.551L206.281 227.661C207.622 217.761 216.479 210.63 226.466 211.427C231.682 211.843 236.361 214.312 239.644 218.38C242.926 222.448 244.346 227.538 243.642 232.713L232.334 315.879L239.454 404.833L204.055 407.089Z" fill="#E8E9EA"/>
<path d="M354.964 405.491L329.399 235.161C328.07 230.166 328.848 224.94 331.6 220.498C334.353 216.057 338.69 213.028 343.815 211.97C353.618 209.946 363.298 215.928 365.857 225.585L390.417 403.352L354.964 405.491Z" fill="#E8E9EA"/>
<path d="M295.229 257.351C296.962 257.351 298.368 255.949 298.368 254.219C298.368 252.489 296.962 251.086 295.229 251.086C293.496 251.086 292.091 252.489 292.091 254.219C292.091 255.949 293.496 257.351 295.229 257.351Z" fill="#D6D7D8"/>
<path d="M295.229 281.071C296.962 281.071 298.368 279.668 298.368 277.938C298.368 276.208 296.962 274.805 295.229 274.805C293.496 274.805 292.091 276.208 292.091 277.938C292.091 279.668 293.496 281.071 295.229 281.071Z" fill="#D6D7D8"/>
<path d="M295.229 304.79C296.962 304.79 298.368 303.387 298.368 301.657C298.368 299.927 296.962 298.524 295.229 298.524C293.496 298.524 292.091 299.927 292.091 301.657C292.091 303.387 293.496 304.79 295.229 304.79Z" fill="#D6D7D8"/>
<path d="M295.229 328.509C296.962 328.509 298.368 327.106 298.368 325.376C298.368 323.646 296.962 322.244 295.229 322.244C293.496 322.244 292.091 323.646 292.091 325.376C292.091 327.106 293.496 328.509 295.229 328.509Z" fill="#D6D7D8"/>
<path d="M295.229 352.228C296.962 352.228 298.368 350.826 298.368 349.095C298.368 347.365 296.962 345.963 295.229 345.963C293.496 345.963 292.091 347.365 292.091 349.095C292.091 350.826 293.496 352.228 295.229 352.228Z" fill="#D6D7D8"/>
<path d="M295.229 375.947C296.962 375.947 298.368 374.545 298.368 372.815C298.368 371.084 296.962 369.682 295.229 369.682C293.496 369.682 292.091 371.084 292.091 372.815C292.091 374.545 293.496 375.947 295.229 375.947Z" fill="#D6D7D8"/>
<path d="M295.229 399.666C296.962 399.666 298.368 398.264 298.368 396.534C298.368 394.804 296.962 393.401 295.229 393.401C293.496 393.401 292.091 394.804 292.091 396.534C292.091 398.264 293.496 399.666 295.229 399.666Z" fill="#D6D7D8"/>
<path d="M295.229 423.386C296.962 423.386 298.368 421.983 298.368 420.253C298.368 418.523 296.962 417.12 295.229 417.12C293.496 417.12 292.091 418.523 292.091 420.253C292.091 421.983 293.496 423.386 295.229 423.386Z" fill="#D6D7D8"/>
<path d="M295.233 441.734L235.848 433.835L234.704 433.683L204.354 363.832L186.28 322.245H233.358L295.233 441.734Z" fill="#8C4FF6"/>
<path d="M493.334 176.683L531.09 156.037V215.023H487.425L493.334 176.683Z" fill="#2E2E41"/>
<path d="M539.184 189.833L542.669 218.792L517.556 268.708L501.969 222.249L509.297 188.871L539.184 189.833Z" fill="#FDB4B4"/>
<path d="M543.968 220.521H500.607V272.814H543.968V220.521Z" fill="#8C4FF6"/>
<path d="M579.738 497.451L591.059 666.016L563.227 666.958L526.433 498.863L579.738 497.451Z" fill="#2E2E41"/>
<path d="M512.281 496.509L523.602 665.074L495.77 666.016L458.976 497.922L512.281 496.509Z" fill="#2E2E41"/>
<path d="M609.142 533.203L608.479 533.201L431.177 532.623L431.336 531.996L476.92 351.726L465.501 260.751C463.338 243.512 472.583 227.217 488.508 220.205L494.256 217.674L505.178 209.746L519.15 259.024L541.523 209.708L551.38 219.544L573.607 225.431C587.462 229.1 596.438 242.554 594.486 256.728L594.462 256.826L560.517 353.506L609.142 533.203Z" fill="#E8E9EA"/>
<path d="M590.564 436.731C589.873 448.585 583.185 457.838 575.627 457.398C568.069 456.958 562.505 446.992 563.198 435.134C563.409 430.393 564.755 425.772 567.123 421.657L570.687 371.467L594.248 373.638L588.233 422.886C590.107 427.249 590.906 431.997 590.564 436.731Z" fill="#FDB4B4"/>
<path d="M469.489 432.224C468.545 444.06 461.661 453.169 454.114 452.568C446.567 451.968 441.217 441.886 442.162 430.045C442.475 425.31 443.919 420.719 446.374 416.655L451.007 366.552L474.516 369.223L467.453 418.332C469.233 422.734 469.931 427.497 469.489 432.224Z" fill="#FDB4B4"/>
<path d="M594.359 416.999L560.141 414.819L560.182 414.307L567.017 328.902L556.099 248.591C555.418 243.589 556.791 238.669 559.963 234.737C563.135 230.805 567.659 228.418 572.701 228.015C582.355 227.256 590.914 234.139 592.211 243.708L606.72 350.796L606.705 350.875L594.359 416.999Z" fill="#E8E9EA"/>
<path d="M475.185 413.728L440.913 411.66L440.989 411.119L464.622 240.033C467.107 230.636 476.468 224.857 485.94 226.812C490.893 227.834 495.086 230.762 497.746 235.055C500.407 239.349 501.159 244.4 499.863 249.281L475.185 413.728Z" fill="#E8E9EA"/>
<path d="M518.422 274.11C520.096 274.11 521.453 272.756 521.453 271.085C521.453 269.414 520.096 268.06 518.422 268.06C516.748 268.06 515.391 269.414 515.391 271.085C515.391 272.756 516.748 274.11 518.422 274.11Z" fill="#D6D7D8"/>
<path d="M518.422 297.016C520.096 297.016 521.453 295.661 521.453 293.99C521.453 292.32 520.096 290.965 518.422 290.965C516.748 290.965 515.391 292.32 515.391 293.99C515.391 295.661 516.748 297.016 518.422 297.016Z" fill="#D6D7D8"/>
<path d="M518.422 319.921C520.096 319.921 521.453 318.567 521.453 316.896C521.453 315.225 520.096 313.87 518.422 313.87C516.748 313.87 515.391 315.225 515.391 316.896C515.391 318.567 516.748 319.921 518.422 319.921Z" fill="#D6D7D8"/>
<path d="M518.422 342.826C520.096 342.826 521.453 341.472 521.453 339.801C521.453 338.13 520.096 336.776 518.422 336.776C516.748 336.776 515.391 338.13 515.391 339.801C515.391 341.472 516.748 342.826 518.422 342.826Z" fill="#D6D7D8"/>
<path d="M518.422 365.732C520.096 365.732 521.453 364.377 521.453 362.706C521.453 361.036 520.096 359.681 518.422 359.681C516.748 359.681 515.391 361.036 515.391 362.706C515.391 364.377 516.748 365.732 518.422 365.732Z" fill="#D6D7D8"/>
<path d="M518.422 388.637C520.096 388.637 521.453 387.282 521.453 385.612C521.453 383.941 520.096 382.586 518.422 382.586C516.748 382.586 515.391 383.941 515.391 385.612C515.391 387.282 516.748 388.637 518.422 388.637Z" fill="#D6D7D8"/>
<path d="M518.422 411.542C520.096 411.542 521.453 410.188 521.453 408.517C521.453 406.846 520.096 405.492 518.422 405.492C516.748 405.492 515.391 406.846 515.391 408.517C515.391 410.188 516.748 411.542 518.422 411.542Z" fill="#D6D7D8"/>
<path d="M518.422 434.447C520.096 434.447 521.453 433.093 521.453 431.422C521.453 429.751 520.096 428.397 518.422 428.397C516.748 428.397 515.391 429.751 515.391 431.422C515.391 433.093 516.748 434.447 518.422 434.447Z" fill="#D6D7D8"/>
<path d="M523.023 204.613C538.68 204.613 551.372 191.944 551.372 176.316C551.372 160.689 538.68 148.02 523.023 148.02C507.366 148.02 494.674 160.689 494.674 176.316C494.674 191.944 507.366 204.613 523.023 204.613Z" fill="#FDB4B4"/>
<path d="M537.88 143.284C539.238 146.041 537.084 149.486 534.233 150.645C531.381 151.805 528.161 151.335 525.12 150.852C522.079 150.37 518.854 149.912 516.011 151.092C512.333 152.619 510.26 156.449 508.473 160.002C505.138 166.637 501.802 173.272 498.467 179.906C496.837 183.148 495.171 186.535 495.139 190.161C495.082 196.818 500.372 202.138 503.219 208.158C506.685 215.488 506.399 224.471 502.474 231.567C498.549 238.663 491.086 243.691 483.025 244.669C480.904 244.926 478.659 244.898 476.752 243.936C474.845 242.974 473.39 240.874 473.743 238.771C474.434 234.657 480.731 233.696 481.888 229.688C482.491 227.595 481.422 225.361 479.981 223.727C478.539 222.092 476.716 220.817 475.341 219.127C472.171 215.229 471.96 209.212 474.849 205.102C476.547 202.687 479.173 200.892 480.271 198.152C481.206 195.817 480.867 193.192 480.512 190.702C480.057 187.502 479.602 184.303 479.147 181.103C478.615 177.37 478.092 173.503 479.142 169.881C481.548 161.58 490.937 157.682 496.444 151.015C499.002 147.917 500.724 144.191 503.349 141.148C507.754 136.043 514.689 133.226 521.415 133.812C528.14 134.397 534.482 138.37 537.935 144.159" fill="#2E2E41"/>
<path d="M533.404 143.807C532.019 144.301 531.505 146.102 531.904 147.515C532.303 148.928 533.347 150.051 534.302 151.168C545.109 163.792 547.621 182.887 540.445 197.868C538.537 201.853 535.994 205.603 534.965 209.899C534.216 213.025 534.256 216.453 532.519 219.159C530.75 221.914 527.245 223.76 526.899 227.013C526.676 229.101 527.951 231.129 529.66 232.353C531.369 233.578 533.457 234.138 535.511 234.594C540.847 235.781 546.304 236.429 551.771 236.525C553.553 236.557 555.392 236.518 557.027 235.809C558.662 235.1 560.058 233.563 560.076 231.784C560.091 230.386 559.283 229.096 559.18 227.701C558.871 223.522 564.505 221.299 565.602 217.255C566.324 214.596 564.902 211.86 563.388 209.557C561.873 207.254 560.145 204.836 560.182 202.081C560.218 199.444 561.876 197.122 562.52 194.564C563.411 191.027 562.317 187.327 561.231 183.843C560.307 180.882 559.384 177.921 558.461 174.96C557.479 171.812 556.498 168.664 555.516 165.517C553.803 160.021 552.004 154.366 548.296 149.959C544.588 145.551 538.444 142.662 532.967 144.462" fill="#2E2E41"/>
<path d="M558.722 253.457L556.779 252.891C560.827 239.037 552.098 213.183 552.01 212.924L553.926 212.271C554.296 213.356 562.948 238.996 558.722 253.457Z" fill="#3F3C57"/>
<path d="M557.75 269.37C562.42 269.37 566.205 265.592 566.205 260.931C566.205 256.27 562.42 252.492 557.75 252.492C553.081 252.492 549.296 256.27 549.296 260.931C549.296 265.592 553.081 269.37 557.75 269.37Z" fill="#3F3C57"/>
<path d="M502.199 290.807H497.072C496.513 290.807 496.06 290.355 496.06 289.797C496.06 289.239 496.513 288.787 497.072 288.787H502.199C503.613 288.787 504.94 288.237 505.938 287.239C506.935 286.241 507.484 284.915 507.481 283.505L507.419 251.982C507.419 245.134 501.839 239.565 494.98 239.565C488.121 239.565 482.54 245.134 482.54 251.98L482.603 281.486C482.609 284.364 484.96 286.724 487.844 286.746L491.363 286.773C491.921 286.777 492.371 287.232 492.367 287.791C492.363 288.346 491.91 288.793 491.355 288.793H491.347L487.828 288.766C483.839 288.736 480.587 285.471 480.579 281.49L480.516 251.982C480.516 244.021 487.004 237.545 494.98 237.545C502.955 237.545 509.443 244.021 509.443 251.98L509.505 283.501C509.509 285.451 508.751 287.286 507.37 288.666C505.991 290.046 504.153 290.807 502.199 290.807Z" fill="#3F3C57"/>
<path d="M491.355 291.363C493.336 291.363 494.942 289.76 494.942 287.783C494.942 285.806 493.336 284.203 491.355 284.203C489.374 284.203 487.768 285.806 487.768 287.783C487.768 289.76 489.374 291.363 491.355 291.363Z" fill="#3F3C57"/>
<path d="M497.072 293.377C499.053 293.377 500.659 291.774 500.659 289.797C500.659 287.82 499.053 286.217 497.072 286.217C495.091 286.217 493.485 287.82 493.485 289.797C493.485 291.774 495.091 293.377 497.072 293.377Z" fill="#3F3C57"/>
<path d="M324.003 238.315L322.06 237.75C326.108 223.896 317.477 197.641 317.389 197.382L319.818 199.209C320.189 200.294 328.229 223.854 324.003 238.315Z" fill="#3F3C57"/>
<path d="M255.702 240.777L257.645 240.211C253.597 226.357 262.326 200.503 262.414 200.243L260.335 201.633C259.965 202.718 251.476 226.316 255.702 240.777Z" fill="#3F3C57"/>
<path d="M323.031 254.228C327.701 254.228 331.486 250.45 331.486 245.79C331.486 241.129 327.701 237.351 323.031 237.351C318.362 237.351 314.577 241.129 314.577 245.79C314.577 250.45 318.362 254.228 323.031 254.228Z" fill="#3F3C57"/>
<path d="M264.716 292.672H259.588C259.029 292.672 258.576 292.219 258.576 291.662C258.576 291.104 259.029 290.651 259.588 290.651H264.716C266.129 290.651 267.456 290.102 268.454 289.104C269.451 288.106 270 286.78 269.997 285.37L269.935 253.847C269.935 246.999 264.355 241.43 257.496 241.43C250.637 241.43 245.056 246.999 245.056 253.845L245.119 283.351C245.125 286.229 247.476 288.589 250.36 288.611L253.879 288.638C254.437 288.642 254.887 289.097 254.883 289.656C254.879 290.21 254.426 290.658 253.871 290.658H253.863L250.344 290.631C246.355 290.601 243.103 287.336 243.095 283.355L243.032 253.847C243.032 245.885 249.521 239.409 257.496 239.409C265.471 239.409 271.959 245.885 271.959 253.845L272.021 285.366C272.025 287.316 271.267 289.15 269.886 290.531C268.507 291.911 266.669 292.672 264.716 292.672Z" fill="#3F3C57"/>
<path d="M253.871 293.228C255.852 293.228 257.458 291.625 257.458 289.648C257.458 287.67 255.852 286.067 253.871 286.067C251.89 286.067 250.284 287.67 250.284 289.648C250.284 291.625 251.89 293.228 253.871 293.228Z" fill="#3F3C57"/>
<path d="M259.588 295.242C261.569 295.242 263.175 293.639 263.175 291.662C263.175 289.684 261.569 288.081 259.588 288.081C257.607 288.081 256.001 289.684 256.001 291.662C256.001 293.639 257.607 295.242 259.588 295.242Z" fill="#3F3C57"/>
</g>
</g>
<defs>
<filter id="filter0_d_3_76" x="115" y="-0.000976562" width="588" height="588" filterUnits="userSpaceOnUse" color-interpolation-filters="sRGB">
<feFlood flood-opacity="0" result="BackgroundImageFix"/>
<feColorMatrix in="SourceAlpha" type="matrix" values="0 0 0 0 0 0 0 0 0 0 0 0 0 0 0 0 0 0 127 0" result="hardAlpha"/>
<feOffset/>
<feGaussianBlur stdDeviation="10"/>
<feColorMatrix type="matrix" values="0 0 0 0 0.815686 0 0 0 0 0.819608 0 0 0 0 0.843137 0 0 0 0.5 0"/>
<feBlend mode="normal" in2="BackgroundImageFix" result="effect1_dropShadow_3_76"/>
<feBlend mode="normal" in="SourceGraphic" in2="effect1_dropShadow_3_76" result="shape"/>
</filter>
<linearGradient id="paint0_linear_3_76" x1="36.0001" y1="559.894" x2="36.0001" y2="571.295" gradientUnits="userSpaceOnUse">
<stop stop-color="#8C4FF6"/>
<stop offset="1" stop-color="#AB7BFF"/>
</linearGradient>
<linearGradient id="paint1_linear_3_76" x1="67.0001" y1="531.392" x2="67.0001" y2="542.793" gradientUnits="userSpaceOnUse">
<stop stop-color="#B68CFF"/>
<stop offset="1" stop-color="#8C4FF6" stop-opacity="0.9"/>
</linearGradient>
<linearGradient id="paint2_linear_3_76" x1="67.0001" y1="531.392" x2="67.0001" y2="542.793" gradientUnits="userSpaceOnUse">
<stop stop-color="#F3EFFA"/>
<stop offset="1" stop-color="#CAACFF" stop-opacity="0.9"/>
</linearGradient>
<linearGradient id="paint3_linear_3_76" x1="20.0001" y1="459.187" x2="20.0001" y2="470.588" gradientUnits="userSpaceOnUse">
<stop stop-color="#B68CFF"/>
<stop offset="1" stop-color="#8C4FF6" stop-opacity="0.9"/>
</linearGradient>
<linearGradient id="paint4_linear_3_76" x1="20.0001" y1="459.187" x2="20.0001" y2="470.588" gradientUnits="userSpaceOnUse">
<stop stop-color="#F3EFFA"/>
<stop offset="1" stop-color="#CAACFF" stop-opacity="0.9"/>
</linearGradient>
<linearGradient id="paint5_linear_3_76" x1="20.0001" y1="459.187" x2="20.0001" y2="470.588" gradientUnits="userSpaceOnUse">
<stop stop-color="#8C4FF6"/>
<stop offset="1" stop-color="#AB7BFF"/>
</linearGradient>
<linearGradient id="paint6_linear_3_76" x1="53.5001" y1="498.14" x2="53.5001" y2="506.69" gradientUnits="userSpaceOnUse">
<stop stop-color="#B68CFF"/>
<stop offset="1" stop-color="#8C4FF6" stop-opacity="0.9"/>
</linearGradient>
<linearGradient id="paint7_linear_3_76" x1="10.0001" y1="509.54" x2="10.0001" y2="528.542" gradientUnits="userSpaceOnUse">
<stop stop-color="#F3EFFA"/>
<stop offset="1" stop-color="#CAACFF" stop-opacity="0.9"/>
</linearGradient>
<linearGradient id="paint8_linear_3_76" x1="59.0001" y1="449.686" x2="59.0001" y2="468.687" gradientUnits="userSpaceOnUse">
<stop stop-color="#F3EFFA"/>
<stop offset="1" stop-color="#CAACFF" stop-opacity="0.9"/>
</linearGradient>
<linearGradient id="paint9_linear_3_76" x1="59.0001" y1="449.686" x2="59.0001" y2="468.687" gradientUnits="userSpaceOnUse">
<stop stop-color="#B68CFF"/>
<stop offset="1" stop-color="#8C4FF6" stop-opacity="0.9"/>
</linearGradient>
<clipPath id="clip0_3_76">
<rect x="157" y="39" width="504" height="508" rx="252" fill="white"/>
</clipPath>
<clipPath id="clip1_3_76">
<rect width="701" height="603" fill="white" transform="translate(77 105)"/>
</clipPath>
</defs>
</svg>
