<svg width="602" height="434" viewBox="0 0 602 434" fill="none" xmlns="http://www.w3.org/2000/svg">
<path opacity="0.1" d="M349.772 76.3632C311.179 75.0244 274.393 62.5877 239.319 48.9837C204.245 35.3796 169.482 20.304 131.792 13.0953C107.56 8.45371 79.8469 7.80089 60.3258 20.7687C41.5363 33.2441 35.4672 54.7816 32.2026 74.7644C29.7472 89.8013 28.3227 105.624 35.0348 119.704C39.7073 129.474 47.999 137.689 53.7356 147.05C73.689 179.619 59.5831 219.784 37.9558 251.611C27.8128 266.549 16.0458 280.761 8.21967 296.645C0.3935 312.528 -3.23137 330.724 3.6193 346.923C10.409 362.966 26.5824 375.038 44.1081 383.519C79.7028 400.73 121.644 405.654 162.543 408.475C253.076 414.655 344.097 411.977 434.868 409.3C468.462 408.304 502.205 407.303 535.25 402.108C553.602 399.225 572.552 394.656 585.876 383.624C602.787 369.616 606.983 345.905 595.648 328.339C576.637 298.885 524.076 291.566 510.785 259.954C503.474 242.555 510.985 223.17 521.615 207.032C544.412 172.416 582.634 142.043 584.646 102.47C586.032 75.29 567.658 48.0764 539.246 35.2137C509.472 21.7203 468.179 23.4242 446.214 45.7251C423.594 68.7009 383.843 77.5416 349.772 76.3632Z" fill="#8C4FF6"/>
<path d="M134.27 401.117C134.27 401.117 103.785 378.114 98.0267 348.853C95.6913 336.564 89.4273 325.361 80.1739 316.926C75.7473 312.958 70.9663 309.402 65.8906 306.304" stroke="#535461" stroke-width="2" stroke-miterlimit="10"/>
<path d="M62.1604 287.87C64.832 291.477 66.0403 306.762 66.0403 306.762C66.0403 306.762 51.757 301.147 49.0799 297.546C47.7944 295.814 47.2506 293.644 47.5681 291.512C47.8857 289.381 49.0385 287.463 50.7731 286.179C52.5077 284.896 54.6819 284.353 56.8175 284.67C58.953 284.987 60.8749 286.138 62.1604 287.87Z" fill="#8C4FF6"/>
<path d="M87.7784 299.864C88.0555 304.34 80.7559 317.828 80.7559 317.828C80.7559 317.828 71.8157 305.358 71.533 300.882C71.4255 298.748 72.1646 296.658 73.5902 295.065C75.0159 293.471 77.0131 292.502 79.1493 292.369C81.2855 292.235 83.3885 292.946 85.0026 294.349C86.6168 295.752 87.6121 297.734 87.7728 299.864H87.7784Z" fill="#8C4FF6"/>
<path d="M112.609 334.342C110.592 338.347 97.4613 346.314 97.4613 346.314C97.4613 346.314 96.0591 331.045 98.0766 327.039C99.0697 325.156 100.764 323.737 102.795 323.087C104.826 322.438 107.031 322.61 108.936 323.568C110.84 324.525 112.292 326.19 112.98 328.205C113.667 330.22 113.534 332.424 112.609 334.342Z" fill="#8C4FF6"/>
<path d="M125.518 364.637C124.204 368.924 112.615 378.987 112.615 378.987C112.615 378.987 108.641 364.177 109.954 359.884C110.586 357.824 112.011 356.099 113.917 355.088C115.823 354.077 118.053 353.863 120.117 354.493C122.181 355.123 123.909 356.546 124.922 358.448C125.935 360.351 126.149 362.577 125.518 364.637Z" fill="#8C4FF6"/>
<path d="M67.5423 328.671C71.9764 329.269 85.9937 322.951 85.9937 322.951C85.9937 322.951 74.1657 313.17 69.7095 312.572C67.5706 312.286 65.4052 312.858 63.6896 314.165C61.974 315.472 60.8488 317.405 60.5614 319.54C60.274 321.675 60.848 323.837 62.1572 325.549C63.4664 327.261 65.4035 328.385 67.5423 328.671Z" fill="#8C4FF6"/>
<path d="M83.0893 363.918C87.5234 363.16 98.98 352.953 98.98 352.953C98.98 352.953 84.7576 347.155 80.3291 347.913C79.2688 348.087 78.2534 348.468 77.3416 349.035C76.4298 349.602 75.6395 350.344 75.0165 351.218C74.3934 352.092 73.9499 353.08 73.7115 354.126C73.4731 355.171 73.4446 356.254 73.6276 357.311C73.8106 358.367 74.2014 359.378 74.7776 360.283C75.3538 361.188 76.1039 361.97 76.9846 362.585C77.8653 363.199 78.8592 363.633 79.9089 363.862C80.9586 364.091 82.0433 364.11 83.1004 363.918H83.0893Z" fill="#8C4FF6"/>
<path d="M102.904 396.11C107.399 396.11 120.424 387.983 120.424 387.983C120.424 387.983 107.394 379.867 102.899 379.867C100.741 379.867 98.6711 380.723 97.1452 382.246C95.6193 383.769 94.7621 385.835 94.7621 387.989C94.7621 390.143 95.6193 392.208 97.1452 393.731C98.6711 395.255 100.741 396.11 102.899 396.11H102.904Z" fill="#8C4FF6"/>
<path d="M430.412 202.157C430.412 202.157 449.201 168.935 477.524 159.364C489.417 155.422 499.709 147.737 506.855 137.462C510.207 132.55 513.1 127.34 515.496 121.899" stroke="#535461" stroke-width="2" stroke-miterlimit="10"/>
<path d="M533.277 115.814C530.051 118.935 515.036 122.166 515.036 122.166C515.036 122.166 518.722 107.283 521.948 104.158C523.505 102.703 525.572 101.916 527.705 101.967C529.837 102.018 531.864 102.903 533.349 104.431C534.834 105.959 535.659 108.009 535.645 110.138C535.632 112.267 534.782 114.305 533.277 115.814Z" fill="#8C4FF6"/>
<path d="M524.786 142.718C520.352 143.592 506.013 138.16 506.013 138.16C506.013 138.16 517.209 127.648 521.615 126.791C522.673 126.556 523.768 126.535 524.834 126.729C525.9 126.922 526.917 127.326 527.825 127.918C528.732 128.509 529.512 129.275 530.119 130.171C530.726 131.067 531.148 132.075 531.359 133.136C531.57 134.197 531.567 135.29 531.349 136.35C531.132 137.409 530.704 138.415 530.092 139.308C529.479 140.2 528.695 140.962 527.784 141.547C526.872 142.133 525.853 142.531 524.786 142.718Z" fill="#8C4FF6"/>
<path d="M493.88 171.863C489.635 170.396 479.985 158.469 479.985 158.469C479.985 158.469 494.95 155.05 499.207 156.516C500.229 156.854 501.175 157.392 501.987 158.099C502.8 158.805 503.464 159.665 503.941 160.63C504.418 161.594 504.698 162.643 504.765 163.717C504.833 164.79 504.686 165.866 504.333 166.883C503.98 167.899 503.429 168.835 502.711 169.637C501.993 170.439 501.122 171.09 500.15 171.554C499.177 172.017 498.122 172.283 497.046 172.336C495.97 172.389 494.894 172.228 493.88 171.863Z" fill="#8C4FF6"/>
<path d="M465.48 188.659C461.046 187.929 449.539 177.777 449.539 177.777C449.539 177.777 463.723 171.879 468.151 172.61C470.283 172.959 472.188 174.14 473.447 175.892C474.706 177.644 475.217 179.823 474.866 181.951C474.516 184.078 473.333 185.98 471.578 187.237C469.823 188.494 467.639 189.003 465.508 188.653L465.48 188.659Z" fill="#8C4FF6"/>
<path d="M493.492 126.525C493.487 131.012 501.64 144.03 501.64 144.03C501.64 144.03 509.782 131.028 509.782 126.547C509.81 125.463 509.621 124.385 509.225 123.375C508.829 122.365 508.234 121.445 507.476 120.668C506.718 119.891 505.812 119.274 504.811 118.853C503.81 118.431 502.735 118.214 501.648 118.214C500.562 118.214 499.486 118.431 498.485 118.853C497.485 119.274 496.578 119.891 495.82 120.668C495.062 121.445 494.467 122.365 494.071 123.375C493.675 124.385 493.486 125.463 493.514 126.547L493.492 126.525Z" fill="#8C4FF6"/>
<path d="M460.552 146.585C461.894 150.867 473.555 160.853 473.555 160.853C473.555 160.853 477.435 146.016 476.083 141.734C475.382 139.75 473.936 138.115 472.052 137.173C470.167 136.232 467.989 136.057 465.978 136.686C463.967 137.315 462.278 138.698 461.268 140.544C460.258 142.391 460.006 144.557 460.564 146.585H460.552Z" fill="#8C4FF6"/>
<path d="M431.249 170.468C431.847 174.894 441.647 186.716 441.647 186.716C441.647 186.716 447.971 172.747 447.372 168.305C447.253 167.228 446.92 166.187 446.392 165.241C445.864 164.295 445.152 163.464 444.297 162.797C443.443 162.129 442.463 161.64 441.416 161.356C440.369 161.072 439.276 161 438.201 161.145C437.125 161.289 436.09 161.646 435.155 162.196C434.22 162.745 433.405 163.476 432.757 164.345C432.11 165.213 431.642 166.203 431.383 167.254C431.124 168.306 431.079 169.398 431.249 170.468Z" fill="#8C4FF6"/>
<path opacity="0.25" d="M533.277 115.814C530.051 118.935 515.036 122.166 515.036 122.166C515.036 122.166 518.722 107.283 521.948 104.158C523.505 102.703 525.572 101.916 527.705 101.967C529.837 102.018 531.864 102.903 533.349 104.431C534.834 105.959 535.659 108.009 535.645 110.138C535.632 112.267 534.782 114.305 533.277 115.814Z" fill="black"/>
<path opacity="0.25" d="M524.786 142.718C520.352 143.592 506.013 138.16 506.013 138.16C506.013 138.16 517.209 127.648 521.615 126.791C522.673 126.556 523.768 126.535 524.834 126.729C525.9 126.922 526.917 127.326 527.825 127.918C528.732 128.509 529.512 129.275 530.119 130.171C530.726 131.067 531.148 132.075 531.359 133.136C531.57 134.197 531.567 135.29 531.349 136.35C531.132 137.409 530.704 138.415 530.092 139.308C529.479 140.2 528.695 140.962 527.784 141.547C526.872 142.133 525.853 142.531 524.786 142.718Z" fill="black"/>
<path opacity="0.25" d="M493.88 171.863C489.635 170.396 479.985 158.469 479.985 158.469C479.985 158.469 494.95 155.05 499.207 156.516C500.229 156.854 501.175 157.392 501.987 158.099C502.8 158.805 503.464 159.665 503.941 160.63C504.418 161.594 504.698 162.643 504.765 163.717C504.833 164.79 504.686 165.866 504.333 166.883C503.98 167.899 503.429 168.835 502.711 169.637C501.993 170.439 501.122 171.09 500.15 171.554C499.177 172.017 498.122 172.283 497.046 172.336C495.97 172.389 494.894 172.228 493.88 171.863Z" fill="black"/>
<path opacity="0.25" d="M465.48 188.659C461.046 187.929 449.539 177.777 449.539 177.777C449.539 177.777 463.723 171.879 468.151 172.61C470.283 172.959 472.188 174.14 473.447 175.892C474.706 177.644 475.217 179.823 474.866 181.951C474.516 184.078 473.333 185.98 471.578 187.237C469.823 188.494 467.639 189.003 465.508 188.653L465.48 188.659Z" fill="black"/>
<path opacity="0.25" d="M493.492 126.525C493.487 131.012 501.64 144.03 501.64 144.03C501.64 144.03 509.782 131.028 509.782 126.547C509.81 125.463 509.621 124.385 509.225 123.375C508.829 122.365 508.234 121.445 507.476 120.668C506.718 119.891 505.812 119.274 504.811 118.853C503.81 118.431 502.735 118.214 501.648 118.214C500.562 118.214 499.486 118.431 498.485 118.853C497.485 119.274 496.578 119.891 495.82 120.668C495.062 121.445 494.467 122.365 494.071 123.375C493.675 124.385 493.486 125.463 493.514 126.547L493.492 126.525Z" fill="black"/>
<path opacity="0.25" d="M460.552 146.585C461.894 150.867 473.555 160.853 473.555 160.853C473.555 160.853 477.435 146.016 476.083 141.734C475.382 139.75 473.936 138.115 472.052 137.173C470.167 136.232 467.989 136.057 465.978 136.686C463.967 137.315 462.278 138.698 461.268 140.544C460.258 142.391 460.006 144.557 460.564 146.585H460.552Z" fill="black"/>
<path opacity="0.25" d="M431.249 170.468C431.847 174.894 441.647 186.716 441.647 186.716C441.647 186.716 447.971 172.747 447.372 168.305C447.253 167.228 446.92 166.187 446.392 165.241C445.864 164.295 445.152 163.464 444.297 162.797C443.443 162.129 442.463 161.64 441.416 161.356C440.369 161.072 439.276 161 438.201 161.145C437.125 161.289 436.09 161.646 435.155 162.196C434.22 162.745 433.405 163.476 432.757 164.345C432.11 165.213 431.642 166.203 431.383 167.254C431.124 168.306 431.079 169.398 431.249 170.468Z" fill="black"/>
<path d="M431.493 201.499C431.493 201.499 435.184 163.525 457.166 143.332C466.438 134.916 472.727 123.728 475.091 111.444C476.167 105.604 476.703 99.6779 476.693 93.7402" stroke="#535461" stroke-width="2" stroke-miterlimit="10"/>
<path d="M490.471 80.9272C488.809 85.0875 476.371 94.1163 476.371 94.1163C476.371 94.1163 473.699 79.0185 475.379 74.8582C476.187 72.8605 477.758 71.2652 479.745 70.4233C481.732 69.5814 483.972 69.5617 485.974 70.3687C487.975 71.1757 489.573 72.7432 490.417 74.7265C491.26 76.7097 491.28 78.9461 490.471 80.9438V80.9272Z" fill="#8C4FF6"/>
<path d="M493.636 108.988C489.962 111.566 474.625 112.412 474.625 112.412C474.625 112.412 480.6 98.2824 484.275 95.7043C485.146 95.0533 486.14 94.5834 487.197 94.3225C488.253 94.0617 489.352 94.0151 490.427 94.1855C491.502 94.356 492.532 94.74 493.455 95.3149C494.379 95.8898 495.178 96.6438 495.804 97.5324C496.431 98.4209 496.872 99.4259 497.103 100.488C497.333 101.55 497.347 102.647 497.145 103.715C496.943 104.782 496.528 105.799 495.926 106.703C495.323 107.608 494.544 108.383 493.636 108.982V108.988Z" fill="#8C4FF6"/>
<path d="M477.197 148.145C472.719 148.521 459.05 141.506 459.05 141.506C459.05 141.506 471.355 132.323 475.833 131.947C477.984 131.766 480.118 132.446 481.767 133.836C483.416 135.226 484.443 137.213 484.624 139.36C484.805 141.506 484.124 143.637 482.731 145.282C481.338 146.928 479.348 147.954 477.197 148.134V148.145Z" fill="#8C4FF6"/>
<path d="M458.069 174.971C453.718 176.078 439.064 171.502 439.064 171.502C439.064 171.502 449.634 160.377 453.984 159.248C456.073 158.708 458.292 159.017 460.152 160.109C462.012 161.201 463.361 162.986 463.903 165.071C464.445 167.156 464.134 169.37 463.04 171.227C461.946 173.084 460.158 174.431 458.069 174.971Z" fill="#8C4FF6"/>
<path d="M458.457 106.841C460.275 110.941 472.99 119.565 472.99 119.565C472.99 119.565 475.152 104.385 473.334 100.285C472.428 98.3672 470.806 96.879 468.816 96.1384C466.825 95.3978 464.623 95.4637 462.681 96.3219C460.738 97.1802 459.209 98.7627 458.42 100.731C457.631 102.7 457.644 104.899 458.457 106.858V106.841Z" fill="#8C4FF6"/>
<path d="M436.486 138.497C439.452 141.866 454.162 146.281 454.162 146.281C454.162 146.281 451.679 131.15 448.713 127.781C448.014 126.962 447.158 126.291 446.195 125.805C445.233 125.32 444.184 125.03 443.109 124.953C442.033 124.875 440.953 125.012 439.932 125.355C438.91 125.698 437.966 126.24 437.156 126.95C436.346 127.66 435.685 128.524 435.213 129.491C434.74 130.458 434.464 131.509 434.402 132.584C434.34 133.658 434.492 134.734 434.85 135.749C435.207 136.764 435.764 137.698 436.486 138.497Z" fill="#8C4FF6"/>
<path d="M419.365 172.2C421.715 176.017 435.467 182.85 435.467 182.85C435.467 182.85 435.583 167.52 433.25 163.697C432.088 161.932 430.283 160.688 428.218 160.229C426.153 159.769 423.99 160.131 422.187 161.237C420.385 162.343 419.085 164.107 418.564 166.153C418.042 168.2 418.339 170.369 419.393 172.2H419.365Z" fill="#8C4FF6"/>
<path d="M403.225 52.7837C404.145 49.4145 405.254 46.0287 406.03 42.6152C405.099 46.0287 403.985 49.4256 403.225 52.7837Z" fill="url(#paint0_linear_1_100)"/>
<path d="M399.102 85.2365C399.024 85.1037 398.969 84.9709 398.908 84.8492C398.908 84.7939 398.852 84.7497 398.83 84.6943C398.709 84.7512 398.585 84.8011 398.459 84.8437C398.215 84.9378 397.965 85.0263 397.71 85.0982C397.455 85.1701 397.35 85.2088 397.156 85.2531C396.995 85.3084 396.83 85.351 396.663 85.3803L396.707 85.4799C396.912 85.4357 397.112 85.3969 397.317 85.3416L397.372 86.0276C397.605 86.0276 397.821 85.9944 398.032 85.9944C398.131 85.989 398.231 85.989 398.331 85.9944C398.763 85.9944 399.14 85.9944 399.44 85.9944C399.323 85.7455 399.201 85.4855 399.102 85.2365ZM511.617 264.003C509.012 260.501 503.813 222.914 503.813 222.914C503.813 222.914 493.586 196.188 496.374 185.521C499.162 174.855 488.759 147.564 488.759 147.564C488.759 147.564 481.886 144.582 481.515 140.156C481.515 140.156 453.452 131.304 452.139 124.666C451.075 119.222 433.671 115.316 427.419 114.082C425.512 106.403 423.594 99.2389 422.181 95.3275C421.799 94.1104 421.438 93.0592 421.106 92.2294C418.717 86.1438 411.334 85.5906 405.98 86.0774C405.748 85.0402 405.317 84.0577 404.711 83.184C404.622 82.8836 404.447 82.6161 404.206 82.415C404.091 82.3173 403.969 82.2285 403.84 82.1494C403.744 81.9701 403.616 81.8091 403.464 81.6737C403.311 81.5369 403.144 81.4181 402.965 81.3196C402.836 81.25 402.703 81.1891 402.566 81.137C402.244 81.0149 401.912 80.9241 401.574 80.8659C401.179 80.7849 400.779 80.7331 400.376 80.711C401.355 80.2839 402.227 79.6474 402.931 78.8466C403.411 78.2844 403.768 77.6288 403.979 76.9214C404.155 76.3331 404.233 75.7202 404.212 75.1068C404.068 75.3596 403.901 75.5985 403.713 75.8205C403.946 73.3696 402.649 70.8801 401.906 68.4403C401.006 65.2641 400.839 61.9255 401.418 58.6757C402.161 53.774 404.001 48.8171 405.248 43.8269C405.251 43.7993 405.251 43.7715 405.248 43.7439C405.902 41.2657 406.307 38.7285 406.457 36.1701C406.673 31.0084 405.348 25.8578 403.22 21.1553C401.33 16.9895 398.542 12.89 394.274 11.1971C391.104 9.91915 387.551 10.1238 384.136 9.91362C376.477 9.43783 369.171 6.74911 361.888 4.30382C354.605 1.85852 347.112 -0.365483 339.446 0.0605079C331.781 0.486498 323.894 4.17657 320.396 10.9482C319.288 13.0615 318.65 15.4128 317.326 17.3989C314.843 21.1443 310.398 23.0197 306.69 25.6033C302.982 28.187 299.717 31.8549 298.376 36.231C297.643 38.5886 297.54 41.0963 298.076 43.506C298.197 44.0502 298.352 44.5861 298.542 45.1104C299.068 46.5722 299.888 47.9109 300.953 49.0439C301.756 49.8813 302.678 50.5953 303.691 51.1628C304.962 51.8663 306.324 52.3948 307.737 52.734C307.687 52.8999 307.637 53.077 307.582 53.2485C307.493 53.5306 307.416 53.8017 307.332 54.106C307.15 54.7865 306.978 55.478 306.834 56.1751C306.828 56.2247 306.828 56.2748 306.834 56.3245C306.153 59.4712 305.811 62.6816 305.814 65.9009C305.813 67.4235 305.89 68.9451 306.047 70.4596C308.264 92.9099 326.831 110.619 349.772 111.77C350.559 111.808 351.352 111.83 352.156 111.83C352.521 111.83 352.882 111.83 353.264 111.83C353.624 112.306 353.979 112.793 354.317 113.269C354.655 113.745 354.966 114.232 355.259 114.707L354.456 113.877L353.652 113.142C353.434 113.44 353.191 113.72 352.926 113.977C352.402 113.793 351.867 113.642 351.324 113.523C349.024 113.014 345.521 112.826 340.91 114.215C336.67 115.482 331.487 118.088 325.424 123.039L295.876 140.743L279.891 150.446L274.132 164.498C274.132 164.498 269.803 181.195 264.987 200.326C264.798 200.381 264.616 200.437 264.433 200.503C264.043 200.459 263.65 200.436 263.258 200.437C260.463 200.43 257.775 201.505 255.757 203.435C253.74 205.365 252.55 208 252.438 210.788C242.861 222.405 242.318 234.023 244.568 239.357C244.772 239.856 245.028 240.333 245.333 240.778C246.807 242.903 249.562 248.38 252.355 254.216C252.283 254.698 252.239 255.102 252.217 255.406C252.212 255.505 252.212 255.605 252.217 255.705C252.217 255.705 253.879 280.772 248.337 287.958C247.123 289.524 247.306 291.582 248.337 293.861C252.05 302.06 266.733 313.009 266.733 313.009C266.733 313.009 284.342 312.915 294.152 311.847C294.124 312.832 294.102 313.811 294.08 314.768C293.858 324.439 293.858 332.543 293.858 332.543L293.493 342.684C293.493 342.684 290.167 364.056 288.504 369.948C287.457 373.643 288.665 407.861 289.718 433.016H463.213C465.253 418.134 462.376 372.918 462.376 372.918C462.376 372.918 459.643 361.229 459.544 351.038C459.538 351.027 459.536 351.015 459.536 351.002C459.536 350.99 459.538 350.977 459.544 350.966C459.544 350.075 459.544 349.207 459.577 348.355L460.835 348.311L463.097 348.233H463.302C463.302 348.233 463.357 348.023 463.485 347.68C463.784 346.825 464.192 346.013 464.698 345.262C465.663 343.84 467.17 342.446 469.437 342.352C470.69 342.302 472.63 341.29 474.819 339.796C474.834 339.8 474.849 339.8 474.864 339.796C480.755 335.819 488.543 328.477 490.433 327.271C493.032 325.611 505.481 314.547 505.481 314.547C505.481 314.547 507.338 312.201 509.316 309.374L509.388 309.274C511.849 305.734 514.465 301.501 513.823 300.168C512.714 297.778 514.565 292.063 514.565 292.063C520.346 281.502 514.222 267.505 511.617 264.003ZM404.439 93.8393C404.492 94.0045 404.526 94.1753 404.539 94.3483C404.4 94.1657 404.262 93.9721 404.123 93.795L403.99 93.618L403.896 93.4852L404.107 93.1975C404.107 93.1975 404.107 93.1975 404.107 93.2363C404.253 93.4156 404.366 93.6199 404.439 93.8393ZM402.577 88.9376C401.973 89.0593 401.496 89.17 401.186 89.253C400.792 88.5559 400.415 87.8588 400.077 87.1507C400.966 87.6652 401.803 88.2636 402.577 88.9376ZM401.535 89.8117C401.533 89.8007 401.533 89.7896 401.535 89.7786L401.579 89.8117C401.806 89.9611 402.028 90.105 402.233 90.2543C402.416 90.3871 402.582 90.5144 402.749 90.6471C402.638 90.8408 402.516 91.0399 402.394 91.2004C402.2 90.8961 402.017 90.6029 401.84 90.2986C401.729 90.1769 401.629 90.0109 401.535 89.8117ZM398.209 82.9848C399.28 82.8794 400.359 82.8794 401.429 82.9848C401.579 82.9848 401.712 83.0125 401.845 83.0346C402.146 83.081 402.441 83.157 402.726 83.2615C403.381 84.1761 403.785 85.2463 403.896 86.3651L403.597 86.4094L403.303 86.4647C402.749 86.5587 402.194 86.6528 401.762 86.7413L401.208 86.8575C400.471 87.0179 400.044 87.1396 400.027 87.1452C399.955 86.9958 399.883 86.8575 399.805 86.7136C399.684 86.4757 399.556 86.2323 399.445 85.9944C399.334 85.7565 399.19 85.4855 399.074 85.2365C398.996 85.1037 398.941 84.9709 398.88 84.8492C398.88 84.7939 398.824 84.7497 398.802 84.6943C398.77 84.6356 398.742 84.5746 398.719 84.5118C398.381 83.8257 398.071 83.1397 397.771 82.4648C397.738 82.3984 397.71 82.3265 397.683 82.2601L398.104 82.2324V82.3763L398.209 82.9848ZM265.968 426.178C265.924 417.941 265.325 409.028 263.662 400.663C262.953 397.106 262.221 393.549 261.478 390.052C261.29 389.178 261.107 388.315 260.924 387.452L259.217 387.679H259.062C254.406 365.765 249.54 346.457 249.54 346.457C249.54 346.457 239.873 309.617 240.993 306.68C241.137 306.298 240.954 305.269 240.544 303.759C238.205 295.383 228.439 272.302 225.025 264.413C225.025 264.379 224.997 264.341 224.986 264.313C224.432 262.991 224.033 262.1 223.911 261.84L224.714 250.067L224.759 249.359L224.864 247.854L224.82 247.816L224.864 247.118C224.864 247.118 216.428 240.214 202.139 235.229C201.585 235.03 200.997 234.837 200.415 234.649C201.13 229.885 202.078 224.508 203.314 219.269C203.431 218.743 203.558 218.234 203.691 217.72C203.808 217.205 203.941 216.707 204.074 216.204C204.284 215.385 204.511 214.577 204.744 213.781C205.515 213.537 206.274 213.266 207.022 212.978L207.31 212.868C216.528 209.288 224.134 202.495 228.72 193.747C233.306 185 234.561 174.89 232.252 165.29C230.936 159.845 228.505 154.731 225.113 150.269C224.858 149.926 224.587 149.583 224.315 149.246C224.044 148.908 223.717 148.532 223.412 148.189C225.014 144.554 226.904 141.097 227.059 137.561C227.086 137.114 227.086 136.665 227.059 136.217V136.162C226.854 133.888 225.845 131.586 223.495 129.169C220.064 125.623 215.181 123.825 210.298 122.962C205.415 122.099 200.438 122.076 195.527 121.495C187.385 120.522 179.453 118.016 171.311 117.247C161.282 116.32 151.185 118.037 142.03 122.226C135.971 124.992 129.836 129.827 129.47 136.46C129.171 141.943 132.995 147.199 132.031 152.615C131.072 157.937 125.64 162.125 126.117 167.508C126.3 169.61 127.38 171.491 128.733 173.168C129.198 173.721 129.692 174.274 130.202 174.827C132.175 176.913 134.347 178.916 135.45 181.544C135.495 181.654 135.539 181.765 135.578 181.876C136.515 184.47 136.093 187.751 133.777 189.239C133.789 189.249 133.799 189.262 133.804 189.278C133.838 189.322 133.871 189.355 133.898 189.399C133.902 189.391 133.902 189.381 133.898 189.372C134.72 190.344 135.827 191.033 137.063 191.341L137.534 191.485C137.152 191.9 136.792 192.332 136.426 192.785L136.188 193.101C135.577 193.92 135.021 194.78 134.525 195.673C134.242 196.171 133.971 196.669 133.743 197.167C132.984 198.685 132.434 200.298 132.108 201.963C131.515 205.626 132.352 209.443 131.454 213.028C130.346 217.454 126.837 220.851 124.858 224.961C121.112 232.707 123.235 241.796 123.988 250.349C125.014 261.967 123.351 273.635 121.694 285.175C120.814 291.313 119.935 297.455 119.055 303.604C116.838 319.035 114.621 334.467 112.404 349.898C111.595 355.552 110.636 361.516 106.862 365.881H106.9C106.9 365.881 106.9 365.915 106.862 365.926C107.995 366.42 109.2 366.73 110.431 366.844C115.358 367.336 120.58 364.957 125.014 362.357C128.525 360.332 131.851 358.001 134.952 355.392C134.497 357.052 134.009 358.861 133.488 360.808C133.49 360.827 133.49 360.845 133.488 360.863C127.231 384.653 117.165 428.264 117.165 428.264C117.165 428.264 116.251 430.162 115.065 432.989H271.366C269.537 430.776 267.836 428.657 266.506 426.947L265.968 426.178ZM150.238 206.212C150.277 206.146 150.305 206.085 150.343 206.024C150.343 206.201 150.343 206.373 150.343 206.539C150.343 206.705 150.343 206.854 150.343 207.009C150.343 207.164 150.343 207.147 150.343 207.225C150.343 207.452 150.294 207.678 150.255 207.905C150.255 207.905 150.255 207.933 150.255 207.955L150.809 208.16L151.452 208.425C155.251 209.923 159.097 211.278 162.992 212.492C163.391 212.619 163.795 212.74 164.2 212.857L164.283 213.543C164.383 214.245 164.477 214.959 164.566 215.673C164.566 215.673 164.566 215.706 164.566 215.728C164.815 217.703 165.059 219.672 165.275 221.598C165.275 221.598 155.099 217.725 155.226 223.606C155.221 223.711 155.221 223.816 155.226 223.921C155.215 224.061 155.215 224.202 155.226 224.342C155.321 228.923 156.756 231.639 157.044 233.033C157.027 233.091 156.997 233.144 156.956 233.188C156.71 233.722 156.625 234.316 156.712 234.897C156.702 235.887 156.78 236.876 156.945 237.852C156.645 238.034 156.352 238.217 156.058 238.405C155.836 238.543 155.626 238.698 155.409 238.853C154.05 234.145 152.271 229.568 150.094 225.177C148.57 222.046 146.857 218.782 146.874 215.346C146.874 215.125 146.874 214.898 146.901 214.671C146.963 213.676 147.153 212.692 147.467 211.745C147.594 211.385 147.733 211.031 147.888 210.682C148.25 209.854 148.655 209.045 149.102 208.259C149.39 207.739 149.695 207.225 149.989 206.705C150.083 206.55 150.172 206.389 150.26 206.234L150.238 206.212ZM399.102 85.2365C399.024 85.1037 398.969 84.9709 398.908 84.8492C398.908 84.7939 398.852 84.7497 398.83 84.6943C398.709 84.7512 398.585 84.8011 398.459 84.8437C398.215 84.9378 397.965 85.0263 397.71 85.0982C397.455 85.1701 397.35 85.2088 397.156 85.2531L396.663 85.3803L396.707 85.4799C396.912 85.4357 397.112 85.3969 397.317 85.3416L397.372 86.0276C397.605 86.0276 397.821 85.9944 398.032 85.9944H398.331C398.763 85.9944 399.14 85.9944 399.44 85.9944C399.323 85.7455 399.201 85.4855 399.102 85.2365Z" fill="url(#paint1_linear_1_100)"/>
<path d="M277.995 166.496L274.67 167.962C274.67 167.962 252.993 252.02 252.993 258.814C252.993 265.608 298.958 303.41 298.958 303.41L306.13 255.091C306.13 255.091 295.831 144.283 277.995 166.496Z" fill="#E8F5FF"/>
<path d="M378.821 139.758L359.616 129.756C358.54 125.179 356.631 120.838 353.985 116.949C351.174 112.899 347.439 108.921 342.783 106.846C331.016 101.58 392.556 73.9346 392.556 73.9346C393.525 77.2555 394.667 80.524 395.975 83.7268C399.146 91.5385 404.406 101.641 411.184 104.517C422.707 109.413 378.821 139.758 378.821 139.758Z" fill="#FFC1C7"/>
<path opacity="0.1" d="M395.975 83.7268C393.346 92.9575 387.878 101.13 380.343 107.092C372.809 113.053 363.588 116.501 353.985 116.949C351.174 112.899 347.439 108.921 342.783 106.846C331.016 101.58 392.556 73.9346 392.556 73.9346C393.525 77.2555 394.666 80.524 395.975 83.7268Z" fill="black"/>
<path d="M397.705 69.7683C397.707 78.8213 395.019 87.6715 389.982 95.1998C384.945 102.728 377.784 108.596 369.405 112.062C361.026 115.528 351.805 116.435 342.91 114.67C334.014 112.905 325.843 108.546 319.429 102.145C313.015 95.7439 308.647 87.5881 306.878 78.7091C305.108 69.8301 306.017 60.6268 309.488 52.263C312.959 43.8992 318.837 36.7508 326.378 31.7218C333.92 26.6928 342.786 24.0092 351.856 24.0103C357.885 23.9824 363.859 25.147 369.433 27.4366C375.008 29.7262 380.073 33.0956 384.336 37.3501C388.599 41.6046 391.975 46.6599 394.27 52.2241C396.565 57.7884 397.732 63.7512 397.705 69.7683Z" fill="#FFC1C7"/>
<path d="M404.323 133.883L391.818 163.005L380.789 182.335H345.482L335.184 155.907L339.358 128.5H366.322L383.732 127.521L389.613 125.562L393.404 127.709L404.323 133.883Z" fill="#575A89"/>
<path opacity="0.1" d="M400.016 95.0627C400.016 95.0627 407.815 96.7224 400.831 102.437C393.847 108.152 369.753 126.326 369.753 126.326C369.753 126.326 378.217 133.85 376.465 142.663L404.506 127.062L409.494 102.1C409.494 102.1 410.054 94.598 400.016 95.0627Z" fill="black"/>
<path opacity="0.1" d="M375.268 126.325L357.432 129.263C357.432 129.263 361.112 142.845 359.272 146.701C359.217 146.821 359.17 146.945 359.134 147.071L351.856 166.706L357.31 182.124L376.188 156.427L369.753 146.701C369.753 146.701 376.554 137.705 380.6 134.585C384.646 131.465 375.268 126.325 375.268 126.325Z" fill="black"/>
<path d="M375.268 125.567L357.432 128.5C357.432 128.5 361.112 142.081 359.272 145.937C359.217 146.057 359.17 146.181 359.134 146.308L351.856 165.942L357.31 181.361L376.188 155.647L369.753 145.921C369.753 145.921 376.554 136.925 380.6 133.805C384.646 130.685 375.268 125.567 375.268 125.567Z" fill="#DCE6F2"/>
<path d="M400.764 93.5959C400.764 93.5959 408.563 95.2556 401.574 100.971C394.584 106.685 369.753 126.325 369.753 126.325C369.753 126.325 378.949 132.383 377.203 141.191L405.243 125.595L410.231 100.633C410.231 100.633 410.785 93.1312 400.764 93.5959Z" fill="#575A89"/>
<path opacity="0.1" d="M355.21 118.68C355.21 118.68 356.911 121.855 364.421 127.581C364.421 127.581 351.917 134.22 356.701 143.553L337.573 138.574L334.63 129.396L355.21 118.68Z" fill="black"/>
<path d="M354.472 117.949C354.472 117.949 356.174 121.125 363.684 126.851C363.684 126.851 351.18 133.456 355.963 142.817L336.841 137.838L333.898 128.665L354.472 117.949Z" fill="#575A89"/>
<path opacity="0.1" d="M404.323 133.883L391.818 163.005L380.811 182.335H345.482L335.184 155.907L339.352 128.5H346.851C346.729 134.895 349.068 142.408 348.919 145.202C348.664 149.794 355.78 174.568 355.78 174.568C355.78 174.568 370.673 150.524 376.554 148.383C380.251 147.039 388.083 135.853 393.398 127.709L404.323 133.883Z" fill="black"/>
<path d="M453.58 287.135L452.311 288.728C452.311 288.728 461.506 334.796 458.962 345.257C458.529 347.143 458.282 349.066 458.225 351V351.083C457.776 361.727 460.996 375.541 460.996 375.541C460.996 375.541 463.568 416.259 462.104 433.006H289.94C288.931 408.243 287.845 376.161 288.831 372.604C290.494 366.734 293.82 345.44 293.82 345.44L294.185 335.349C294.185 335.349 294.185 325.595 294.485 314.73C294.612 309.845 294.801 304.716 295.072 300.169C295.421 294.448 295.909 289.63 296.58 287.262C296.993 285.467 297.23 283.636 297.289 281.796C297.289 281.624 297.289 281.447 297.322 281.27C297.322 280.717 297.378 280.12 297.4 279.505C297.4 279.334 297.4 279.162 297.4 278.952C297.505 275.389 297.467 271.163 297.35 266.781C297.35 266.543 297.35 266.3 297.35 266.056C297.256 262.77 297.117 259.418 296.962 256.231C296.48 246.273 295.854 237.852 295.854 237.852L274.709 167.924L280.406 153.916L296.22 144.245L325.457 126.625C339.718 114.924 349.107 116.329 352.688 117.612C353.035 117.731 353.376 117.869 353.707 118.027C353.818 118.083 353.907 118.127 353.99 118.177C354.104 118.231 354.213 118.293 354.317 118.365C353.337 118.836 352.485 119.536 351.834 120.406C351.101 121.397 350.578 122.526 350.299 123.726C350.112 124.469 349.98 125.226 349.905 125.988C349.833 126.791 349.805 127.62 349.805 128.456C349.845 130.288 350.002 132.115 350.277 133.927C350.277 133.961 350.277 134.005 350.277 134.049C350.46 135.344 350.687 136.611 350.908 137.8C350.906 137.82 350.906 137.841 350.908 137.861C351.163 139.249 351.418 140.533 351.59 141.639C351.623 141.839 351.651 142.021 351.679 142.193C351.801 142.924 351.859 143.664 351.851 144.406C351.913 146.195 352.154 147.975 352.571 149.717C352.715 150.447 352.882 151.227 353.065 152.04C353.314 153.147 353.586 154.353 353.879 155.581C354.04 156.256 354.212 156.953 354.389 157.645C354.456 157.921 354.528 158.198 354.594 158.48L354.705 158.917C355.886 163.603 357.166 168.267 357.953 171.088C358.419 172.748 358.712 173.771 358.712 173.771C358.712 173.771 367.06 160.3 373.722 152.632C373.822 152.522 373.91 152.416 374.005 152.317C374.664 151.559 375.313 150.867 375.933 150.259C377.291 148.909 378.511 147.946 379.492 147.592C379.701 147.516 379.903 147.421 380.096 147.31C382.823 145.767 387.224 140.162 391.342 134.292C391.746 133.739 392.14 133.136 392.539 132.566C393.454 131.25 394.34 129.927 395.177 128.661C395.82 127.692 396.435 126.752 397.017 125.856C399.789 121.552 401.74 118.343 401.74 118.343L405.586 118.171L406.257 118.138H406.706L424.171 117.33C424.171 117.33 424.925 117.458 426.166 117.707C426.233 117.707 426.299 117.707 426.371 117.751C432.568 118.979 449.783 122.868 450.836 128.262C452.122 134.868 479.891 143.681 479.891 143.681C480.256 148.107 487.057 151.022 487.057 151.022C487.057 151.022 497.355 178.186 494.601 188.83C491.879 199.342 501.684 225.344 501.945 226.074L500.066 228.442L453.58 287.135Z" fill="#E8F5FF"/>
<path opacity="0.1" d="M400.01 93.1317C400.01 93.1317 417.01 88.3185 420.873 98.227C424.736 108.135 433.377 148.151 433.377 148.151C433.377 148.151 410.941 152.372 405.06 148.151C401.61 145.646 397.341 144.531 393.104 145.031L380.417 153.656L376.671 152.549C376.671 152.549 396.968 122.431 401.379 112.196C405.791 101.961 407.282 97.386 400.01 93.1317Z" fill="black"/>
<path d="M399.273 90.9188C399.273 90.9188 416.284 86.1056 420.163 96.0141C424.043 105.922 432.668 145.938 432.668 145.938C432.668 145.938 410.237 150.159 404.35 145.938C400.903 143.433 396.635 142.318 392.4 142.818L379.702 151.443L375.956 150.336C375.956 150.336 396.253 120.218 400.665 109.983C405.076 99.7484 406.545 95.1842 399.273 90.9188Z" fill="#E8F5FF"/>
<path opacity="0.1" d="M285.168 250.555C285.168 250.555 297.855 253.675 300.249 260.834C302.643 267.993 290.871 268.175 290.871 268.175C290.871 268.175 283.699 255.512 285.168 250.555Z" fill="black"/>
<path opacity="0.1" d="M332.424 303.41C332.424 303.41 301.352 366.916 308.524 372.974C315.696 379.032 332.424 303.41 332.424 303.41Z" fill="black"/>
<path opacity="0.1" d="M375.268 256.612C375.268 256.612 400.094 318.298 395.127 327.825C390.161 337.351 405.791 327.825 405.791 327.825L375.268 256.612Z" fill="black"/>
<path d="M409.838 317.546C409.838 317.546 325.989 321.584 350.448 347.647C374.908 373.71 425.102 348.754 425.102 348.754L409.838 317.546Z" fill="#FFC1C7"/>
<path opacity="0.1" d="M397.705 69.7687C397.712 75.7714 396.531 81.7164 394.23 87.262C393.459 87.3505 392.689 87.4058 391.946 87.439C390.837 85.0103 391.431 82.2054 391.453 79.5333C391.475 76.8612 390.488 73.7188 387.911 72.9996C382.773 71.5557 379.226 81.1432 374.16 79.4116C370.28 78.0949 371.294 72.2196 369.061 68.8282C367.292 66.145 363.751 65.3871 360.996 63.7053C355.137 60.1148 355.315 54.3722 352.593 48.9394C349.745 43.2467 343.725 44.9285 338.499 48.2866C334.53 50.8426 331.105 54.2671 326.859 56.303C323.184 58.0733 319.055 58.7151 314.981 58.8092C312.473 58.9062 309.964 58.6416 307.532 58.0236C310.393 47.2874 317.069 37.9565 326.314 31.7708C335.559 25.585 346.742 22.9669 357.779 24.4045C368.815 25.8421 378.951 31.2373 386.296 39.5841C393.641 47.9309 397.694 58.6593 397.699 69.7687H397.705Z" fill="black"/>
<path d="M338.515 46.8202C334.541 49.3762 331.121 52.7952 326.876 54.8421C323.201 56.6069 319.072 57.2487 314.998 57.3427C310.01 57.4534 304.639 56.5793 301.23 52.9833C298.098 49.6639 297.35 44.5575 298.675 40.2035C300 35.8496 303.175 32.237 306.906 29.6202C310.636 27.0034 314.965 25.1943 317.437 21.4489C318.745 19.4683 319.377 17.1337 320.463 15.0258C323.938 8.28192 331.753 4.63057 339.308 4.17692C346.862 3.72327 354.35 5.9694 361.545 8.40363C368.739 10.8379 375.989 13.5155 383.582 14.019C386.963 14.2292 390.477 14.019 393.614 15.2969C397.832 17.0064 400.598 21.0948 402.483 25.2552C404.594 29.9466 405.908 35.0695 405.686 40.1925C405.221 51.1299 397.982 61.8627 401.163 72.3409C402.006 75.1348 403.586 78.0005 402.743 80.7944C401.513 84.8717 396.242 85.8011 391.979 85.9948C390.871 83.5661 391.464 80.7556 391.486 78.089C391.508 75.4225 390.522 72.2745 387.95 71.5553C382.806 70.1225 379.259 79.6934 374.204 77.9673C370.352 76.6451 371.35 70.7753 369.11 67.384C367.342 64.6952 363.795 63.9428 361.046 62.261C355.187 58.6705 355.365 52.9279 352.643 47.4952C349.772 41.7747 343.747 43.4566 338.515 46.8202Z" fill="#3F3D56"/>
<path d="M257.211 257.342L252.982 258.814C252.982 258.814 254.644 283.776 249.102 290.935C243.559 298.093 267.304 315.891 267.304 315.891C267.304 315.891 299.85 315.708 300.77 313.125C301.69 310.541 299.107 266.874 299.107 266.874C299.107 266.874 281.637 260.081 283.106 249.254C283.106 249.254 277.774 274.764 269.87 273.663C261.966 272.562 252.993 265.973 257.211 257.342Z" fill="#E8F5FF"/>
<path opacity="0.1" d="M271.317 281.386C277.479 281.386 282.474 276.826 282.474 271.201C282.474 265.576 277.479 261.016 271.317 261.016C265.155 261.016 260.159 265.576 260.159 271.201C260.159 276.826 265.155 281.386 271.317 281.386Z" fill="black"/>
<path d="M283.516 258.078C283.516 258.078 281.299 190.539 261.999 205.587C242.7 220.635 242.512 238.632 246.186 243.949C249.861 249.265 261.645 275.881 261.645 275.881C263.488 276.948 265.558 277.563 267.685 277.677C269.813 277.79 271.937 277.399 273.883 276.536C275.83 275.672 277.544 274.36 278.885 272.708C280.226 271.056 281.156 269.11 281.598 267.03L283.516 258.078Z" fill="#FFC1C7"/>
<path opacity="0.1" d="M403.907 87.0019C403.817 86.7052 403.644 86.4403 403.408 86.2385C402.455 85.3699 400.404 85.0656 397.311 85.3312L397.439 86.7917C401.562 86.4376 402.377 87.2564 402.482 87.3947V87.533L402.61 87.7156C403.124 88.4053 403.488 89.1947 403.679 90.033C403.87 90.8714 403.884 91.7403 403.719 92.5841C402.815 97.0929 397.267 100.683 397.211 100.722L397.078 100.8L396.995 100.927C394.601 104.473 381.06 114.481 377.519 117.07L377.208 116.716C375.623 118.088 361.689 130.265 360.935 134.929C360.447 137.855 357.144 138.989 355.947 139.305C354.683 138.348 350.581 135.089 348.448 131.438C346.447 128.002 354.5 121.297 355.21 118.68L354.101 117.546C353.985 117.966 343.642 127.615 346.519 132.544C348.824 136.5 353.037 139.886 354.511 141.003C354.04 145.274 351.108 170.352 346.602 176.294C341.004 183.68 336.298 220.901 336.819 233.897C337.279 245.443 334.258 267.251 324.171 276.618C322.424 278.31 320.318 279.587 318.008 280.354C315.698 281.12 313.244 281.356 310.83 281.043H310.708H310.586C310.442 281.043 295.809 282.537 283.516 272.192C273.456 263.744 267.758 249.957 266.572 231.203H266.328L266.228 225.742C268.956 225.317 271.412 223.854 273.082 221.659C274.751 219.464 275.503 216.709 275.179 213.972C274.856 211.236 273.482 208.731 271.348 206.984C269.213 205.237 266.483 204.384 263.731 204.604C260.979 204.824 258.42 206.1 256.591 208.164C254.762 210.228 253.806 212.92 253.923 215.673C254.041 218.426 255.223 221.026 257.221 222.927C259.219 224.829 261.877 225.883 264.638 225.869H264.76L264.859 231.297L264.372 231.33C265.591 250.693 271.577 265.016 282.108 273.862C290.112 280.483 300.337 283.823 310.713 283.207C311.45 283.287 312.19 283.328 312.93 283.328C317.687 283.353 322.263 281.516 325.679 278.211C336.304 268.336 339.535 245.725 339.031 233.786C338.476 220.016 343.415 184.133 348.37 177.6C353.225 171.188 356.168 146.204 356.684 141.363C358.441 140.87 362.415 139.316 363.091 135.277C363.579 132.356 372.885 123.355 378.61 118.37L378.439 118.171C381.52 115.925 391.104 108.844 395.854 104.296C397.328 102.885 398.791 101.475 400.321 100.13C402.161 98.5037 404.5 95.9201 405.115 92.8662C405.325 91.8582 405.326 90.8179 405.118 89.8095C404.91 88.801 404.498 87.8456 403.907 87.0019Z" fill="black"/>
<path d="M354.323 140.654C354.09 140.494 348.569 136.549 345.804 131.802C342.933 126.873 353.275 117.23 353.386 116.81L354.495 117.944C353.791 120.555 345.737 127.266 347.738 130.696C350.26 135.028 355.57 138.817 355.625 138.856L354.323 140.654Z" fill="#353146"/>
<path d="M376.798 118.143L375.933 116.954C376.111 116.826 393.52 104.257 396.264 100.191L396.352 100.069L396.48 99.9858C396.535 99.9471 402.083 96.3621 402.987 91.8477C403.154 91.0049 403.141 90.1365 402.95 89.2988C402.759 88.4611 402.394 87.6727 401.878 86.9848L401.751 86.7967V86.6639C401.64 86.5201 400.825 85.7068 396.702 86.0609L396.574 84.5948C399.672 84.3293 401.718 84.6336 402.671 85.5021C402.908 85.706 403.083 85.9725 403.175 86.2711C403.775 87.1123 404.195 88.0671 404.41 89.0766C404.626 90.0861 404.632 91.129 404.428 92.141C403.813 95.2003 401.479 97.7839 399.634 99.4049C398.109 100.749 396.641 102.171 395.172 103.571C389.601 108.898 377.408 117.706 376.798 118.143Z" fill="#E8F5FF"/>
<path d="M265.513 223.816L264.045 223.843L264.208 232.754L265.677 232.727L265.513 223.816Z" fill="#E8F5FF"/>
<path d="M263.923 225.166C269.846 225.166 274.648 220.373 274.648 214.461C274.648 208.549 269.846 203.756 263.923 203.756C257.999 203.756 253.198 208.549 253.198 214.461C253.198 220.373 257.999 225.166 263.923 225.166Z" fill="#8C4FF6"/>
<path d="M263.923 223.352C268.842 223.352 272.83 219.372 272.83 214.462C272.83 209.552 268.842 205.571 263.923 205.571C259.003 205.571 255.016 209.552 255.016 214.462C255.016 219.372 259.003 223.352 263.923 223.352Z" fill="#E8F5FF"/>
<path d="M312.232 282.614C311.492 282.615 310.751 282.576 310.015 282.498C299.639 283.108 289.417 279.769 281.41 273.154C270.879 264.302 264.904 249.995 263.673 230.616L265.89 230.477C267.076 249.232 272.774 263.024 282.84 271.466C295.133 281.784 309.76 280.318 309.904 280.318H310.026H310.148C312.563 280.629 315.017 280.392 317.328 279.626C319.638 278.86 321.746 277.584 323.495 275.892C333.577 266.526 336.597 244.717 336.137 233.171C335.583 220.165 340.289 182.943 345.892 175.563C350.798 169.096 353.84 139.946 353.874 139.653L353.957 138.823L354.777 138.679C354.827 138.679 359.616 137.772 360.215 134.198C360.99 129.54 374.902 117.363 376.482 115.985L377.929 117.645C372.181 122.624 362.875 131.631 362.409 134.557C361.733 138.607 357.759 140.156 356.008 140.643C355.453 145.489 352.532 170.468 347.694 176.88C342.739 183.414 337.8 219.296 338.354 233.066C338.831 245.005 335.633 267.621 325.008 277.491C321.586 280.804 316.999 282.644 312.232 282.614Z" fill="#353146"/>
<g opacity="0.1">
<path d="M402.427 56.6903C403.336 53.3377 404.434 49.9629 405.198 46.5661C404.284 49.9795 403.181 53.3377 402.427 56.6903Z" fill="black"/>
<path d="M393.154 83.0353C392.046 80.6066 392.639 77.7962 392.661 75.1296C392.683 72.463 391.697 69.3427 389.125 68.5959C383.981 67.163 380.434 76.7395 375.379 75.0079C371.499 73.6856 372.525 67.8158 370.285 64.4245C368.517 61.7358 364.976 60.9834 362.226 59.3015C356.362 55.7111 356.54 49.9685 353.824 44.5357C350.969 38.8374 344.956 40.5192 339.723 43.8829C335.749 46.4388 332.33 49.8634 328.084 51.9048C324.409 53.6696 320.28 54.3114 316.206 54.4054C311.245 54.5216 305.847 53.642 302.438 50.0459C299.811 47.2798 298.863 43.2245 299.406 39.4238C299.312 39.6838 299.229 39.9439 299.146 40.2039C297.816 44.5578 298.592 49.6753 301.701 52.9836C305.11 56.5796 310.508 57.4537 315.469 57.3431C319.548 57.249 323.672 56.6073 327.352 54.8425C331.609 52.7955 335.029 49.3765 338.992 46.8206C344.224 43.4569 350.243 41.7751 353.092 47.4734C355.808 52.9062 355.636 58.6487 361.495 62.2392C364.266 63.8989 367.786 64.6734 369.559 67.3622C371.776 70.7646 370.795 76.6233 374.653 77.9455C379.702 79.6716 383.25 70.1007 388.393 71.5336C390.965 72.2528 391.957 75.4062 391.929 78.0673C391.902 80.7283 391.325 83.5443 392.423 85.973C396.685 85.7793 401.956 84.8665 403.192 80.7726C403.362 80.185 403.441 79.5749 403.425 78.9635C401.623 82.0671 396.99 82.8638 393.154 83.0353Z" fill="black"/>
</g>
<path opacity="0.1" d="M493.326 219.352L499.761 226.146C499.761 226.146 504.91 263.583 507.482 267.085C510.054 270.587 516.128 284.518 510.425 294.979C510.425 294.979 508.585 300.672 509.688 303.056C510.791 305.441 501.418 317.374 501.418 317.374C501.418 317.374 489.097 328.384 486.52 330.038C483.942 331.692 470.341 344.903 465.746 345.086C461.151 345.268 459.649 350.961 459.649 350.961L433.721 351.879C433.721 351.879 419.399 351.133 416.284 353.152C416.284 353.152 417.946 331.31 401.945 316.992L422.353 309.651C422.353 309.651 430.079 306.332 432.468 302.863C433.971 300.736 436.103 299.133 438.565 298.277C438.565 298.277 444.263 294.238 444.446 292.036C444.629 289.834 451.413 287.134 451.413 287.134L447.572 254.411L449.595 200.083C449.595 200.083 456.03 154.563 469.637 157.135C483.244 159.708 493.326 219.352 493.326 219.352Z" fill="black"/>
<path d="M495.543 219.352L501.978 226.146C501.978 226.146 507.127 263.583 509.699 267.085C512.271 270.587 518.345 284.518 512.642 294.979C512.642 294.979 510.807 300.672 511.91 303.056C513.013 305.441 503.635 317.374 503.635 317.374C503.635 317.374 491.314 328.384 488.737 330.038C486.159 331.692 472.558 344.903 467.963 345.086C463.368 345.268 461.866 350.961 461.866 350.961L435.938 351.879C435.938 351.879 421.605 351.133 418.501 353.152C418.501 353.152 420.163 331.31 404.162 316.992L424.57 309.651C424.57 309.651 432.296 306.332 434.685 302.863C436.188 300.736 438.32 299.133 440.782 298.277C440.782 298.277 446.48 294.238 446.663 292.036C446.846 289.834 453.63 287.134 453.63 287.134L449.789 254.411L451.812 200.083C451.812 200.083 458.247 154.563 471.854 157.135C485.461 159.708 495.543 219.352 495.543 219.352Z" fill="#E8F5FF"/>
<path opacity="0.1" d="M471.621 274.233C471.621 274.233 490.56 269.254 495.526 275.339C500.493 281.425 471.621 274.233 471.621 274.233Z" fill="black"/>
<path opacity="0.1" d="M467.209 282.581C473.644 287.079 493.503 287.261 493.503 287.261L467.209 282.581Z" fill="black"/>
<path opacity="0.1" d="M476.953 305.064C477.507 305.247 490.605 319.2 496.103 314.978C501.601 310.757 476.953 305.064 476.953 305.064Z" fill="black"/>
<path opacity="0.1" d="M300.565 187.967C300.565 187.967 304.411 214.4 302.516 225.166C300.62 235.932 307.537 249.271 307.537 249.271L300.565 187.967Z" fill="black"/>
<path d="M215.408 198.716C210.974 202.185 207.737 210.395 205.393 219.418C201.302 235.158 199.966 253.409 199.966 253.409C199.966 253.409 164.66 245.332 167.232 241.664C168.85 239.357 166.677 221.974 164.865 209.371C163.784 201.925 162.82 196.143 162.82 196.143C162.82 196.143 227.546 189.167 215.408 198.716Z" fill="#FFCCD0"/>
<path opacity="0.1" d="M215.408 197.98C210.974 201.455 207.737 209.659 205.393 218.682C198.358 220.814 190.877 221.007 183.742 219.239C176.607 217.471 170.084 213.809 164.865 208.641C163.784 201.189 162.82 195.408 162.82 195.408C162.82 195.408 227.546 188.437 215.408 197.98Z" fill="black"/>
<path d="M234.386 178.208C234.39 187.83 230.983 197.144 224.768 204.5C218.554 211.857 209.932 216.781 200.43 218.403C190.927 220.024 181.156 218.238 172.846 213.36C164.537 208.482 158.223 200.827 155.024 191.75C151.825 182.673 151.946 172.759 155.366 163.762C158.787 154.765 165.285 147.267 173.712 142.593C182.139 137.919 191.95 136.371 201.41 138.224C210.87 140.076 219.369 145.209 225.401 152.715C231.215 159.945 234.384 168.937 234.386 178.208Z" fill="#FFCCD0"/>
<path opacity="0.1" d="M266.578 433.005H254.938L253.957 412.486L252.932 391.247C252.932 391.247 255.575 390.854 259.788 390.268L261.489 390.041H261.628C262.548 394.351 263.457 398.777 264.333 403.197C265.79 411.044 266.549 419.005 266.6 426.986C266.6 427.539 266.6 428.092 266.6 428.613C266.633 430.09 266.6 431.567 266.578 433.005Z" fill="black"/>
<path d="M264.344 433.006H118.374C119.005 431.573 119.427 430.704 119.427 430.704C119.427 430.704 131.105 379.707 137.041 358.131C137.043 358.113 137.043 358.094 137.041 358.076C137.783 355.145 138.678 352.255 139.724 349.418C139.791 349.225 139.879 349.039 139.984 348.864C142.922 344.095 146.602 338.956 141.453 331.615C136.304 324.273 138.127 291.97 138.127 291.97C138.127 291.97 144.38 264.435 150.997 249.752C152.002 247.478 153.427 245.413 155.199 243.667C155.775 243.104 156.39 242.583 157.039 242.107C157.532 241.736 158.047 241.395 158.58 241.083L158.685 241.017C161.465 239.444 164.552 238.487 167.736 238.212C169.998 237.976 172.281 238.039 174.526 238.4C185.256 239.971 193.847 242.599 200.676 245.592C219.183 253.708 224.786 264.585 224.897 264.811L224.941 264.906C225.684 266.637 236.548 291.953 240.461 303.765C241.475 306.841 242.029 309.004 241.808 309.596C240.699 312.528 250.266 349.235 250.266 349.235C250.266 349.235 254.7 366.939 259.134 387.69C259.328 388.553 259.511 389.416 259.688 390.291C260.481 394.058 261.268 397.898 262.027 401.731C263.498 409.633 264.257 417.65 264.294 425.686C264.375 428.191 264.392 430.631 264.344 433.006Z" fill="#FF748E"/>
<path opacity="0.1" d="M166.866 225.587C166.866 225.587 156.795 221.715 156.917 227.59C157.039 233.465 159.372 236.276 158.635 237.133C157.898 237.991 159.001 243.13 159.001 243.13C159.001 243.13 172.608 243.13 178.86 245.941C185.112 248.751 208.158 254.383 211.102 256.098C214.045 257.813 224.958 265.503 224.958 265.503L225.939 250.942C225.939 250.942 214.66 241.642 196.153 236.873C177.646 232.104 166.866 225.587 166.866 225.587Z" fill="black"/>
<path d="M166.866 224.851C166.866 224.851 156.795 220.978 156.917 226.854C157.039 232.729 159.372 235.539 158.635 236.397C157.898 237.254 159.001 242.394 159.001 242.394C159.001 242.394 172.608 242.394 178.86 245.21C185.112 248.026 208.158 253.652 211.102 255.362C214.045 257.071 224.958 264.767 224.958 264.767L225.95 250.25C225.95 250.25 214.671 240.95 196.164 236.181C177.657 231.412 166.866 224.851 166.866 224.851Z" fill="#FF748E"/>
<path opacity="0.1" d="M197.267 259.893C197.267 259.893 216.511 280.689 215.53 286.448C214.549 292.207 197.267 259.893 197.267 259.893Z" fill="black"/>
<path opacity="0.1" d="M166.007 335.017C166.007 335.017 151.901 347.99 147.744 348.726C143.587 349.462 150.931 351.907 155.709 349.954C160.486 348.001 170.674 342.861 170.674 342.861L166.007 335.017Z" fill="black"/>
<path d="M270.075 433.005H237.18C232.579 429.022 228.228 425.332 225.457 423.113C221.023 419.562 217.825 414.334 215.785 410.129C215.325 409.172 214.926 408.276 214.588 407.462C213.982 406.061 213.45 404.63 212.992 403.175L237.351 388.735C238.698 389.878 239.963 391.113 241.137 392.431L241.431 392.768C242.783 394.362 243.975 396.171 244.08 397.653C244.202 399.38 249.013 406.057 253.929 412.469C258.918 418.992 264.028 425.227 264.366 425.647C264.366 425.647 265.209 426.792 266.583 428.552C267.553 429.824 268.75 431.351 270.075 433.005Z" fill="#FFCCD0"/>
<path opacity="0.1" d="M225.401 152.715C224.232 155.348 223.184 158.081 223.029 161.014C222.591 169.478 223.301 188.404 213.912 192.653C209.261 194.744 204.284 190.152 199.185 190.042C195.516 189.964 192.151 192.288 189.912 195.192C187.673 198.097 186.282 201.543 184.658 204.83C183.179 207.812 181.477 210.679 179.564 213.405C178.992 214.239 178.363 215.032 177.68 215.778C171.954 213.367 166.856 209.683 162.774 205.007C158.691 200.331 155.731 194.787 154.121 188.796C152.51 182.806 152.29 176.527 153.479 170.439C154.667 164.351 157.232 158.614 160.978 153.666C164.724 148.717 169.553 144.687 175.095 141.883C180.638 139.079 186.749 137.575 192.962 137.486C199.176 137.396 205.328 138.723 210.949 141.366C216.571 144.01 221.514 147.899 225.401 152.737V152.715Z" fill="black"/>
<path d="M222.292 159.52C221.849 167.984 222.564 186.911 213.169 191.154C208.519 193.245 203.541 188.659 198.442 188.548C194.773 188.465 191.414 190.794 189.169 193.693C186.925 196.592 185.545 200.044 183.915 203.336C182.436 206.319 180.733 209.185 178.821 211.911C177.68 213.527 176.416 215.148 174.659 216.055C171.599 217.648 167.891 216.752 164.61 215.729C160.353 214.39 156.159 212.881 152.028 211.203C152.123 210.581 152.171 209.952 152.172 209.322C152.051 209.554 151.917 209.77 151.784 210.003L151.524 210.456C151.053 211.286 150.593 212.116 150.172 212.968C150.011 213.294 149.856 213.632 149.717 213.969C149.16 215.225 148.81 216.563 148.681 217.93C148.398 221.62 150.221 225.122 151.84 228.442C158.064 241.282 161.911 256.297 157.227 269.768C155.199 275.627 151.685 280.833 149.118 286.493C144.632 296.517 143.312 307.667 145.333 318.459C146.613 325.164 149.179 331.803 148.548 338.602C147.439 350.303 137.329 359.011 127.203 364.997C121.732 368.217 115.037 371.082 109.228 368.537C112.931 364.222 113.884 358.253 114.682 352.621C116.866 337.259 119.055 321.891 121.25 306.514C122.126 300.396 123 294.277 123.872 288.158C125.501 276.662 127.153 265.038 126.133 253.47C125.391 244.945 123.295 235.894 126.998 228.176C128.954 224.088 132.441 220.702 133.527 216.298C134.419 212.719 133.588 208.913 134.176 205.267C134.497 203.608 135.042 202 135.794 200.487C136.752 198.433 138.003 196.529 139.508 194.833C138.022 194.401 136.637 193.809 135.794 192.57C138.177 191.021 138.538 187.53 137.457 184.908C136.376 182.286 134.214 180.288 132.269 178.219C130.323 176.15 128.45 173.738 128.206 170.917C127.735 165.545 133.111 161.384 134.059 156.084C135.018 150.69 131.227 145.446 131.532 139.985C131.886 133.385 137.961 128.589 143.958 125.806C153.008 121.624 163.005 119.906 172.935 120.827C181.016 121.59 188.837 124.085 196.896 125.053C201.757 125.607 206.684 125.662 211.512 126.514C216.339 127.366 221.178 129.164 224.576 132.699C233.532 142.021 222.802 149.694 222.292 159.52Z" fill="#FFE0D0"/>
<path opacity="0.1" d="M214.799 410.135C211.972 408.912 206.828 409.643 197.999 406.959C189.169 404.276 187.468 392.149 187.468 392.149V392.111C187.363 391.834 186.542 390.03 180.989 383.713C174.853 376.736 161.589 341.501 161.589 341.501C161.589 341.501 149.828 328.893 150.199 324.245C150.571 319.598 148.11 307.233 148.354 293.403C148.598 279.572 174.831 270.399 174.831 270.399C225.341 261.464 213.446 319.587 212.099 323.991C210.752 328.395 217.742 340.289 217.742 340.289C216.755 345.467 221.788 353.484 221.788 353.484C221.788 353.484 223.007 360.576 223.257 363.27C223.27 363.395 223.298 363.517 223.34 363.636C224.149 366.175 230.745 368.476 233.427 369.876C236.248 371.348 245.322 384.194 245.322 384.194C247.278 393.626 217.614 411.374 214.799 410.135Z" fill="black"/>
<path d="M216.267 407.922C213.446 406.694 208.297 407.429 199.473 404.741C190.649 402.052 188.942 389.936 188.942 389.936V389.897C188.842 389.615 188.017 387.817 182.463 381.499C176.327 374.523 163.064 339.282 163.064 339.282C163.064 339.282 151.302 326.679 151.668 322.032C152.034 317.385 149.584 305.02 149.828 291.2C150.072 277.381 176.288 268.213 176.288 268.213C226.798 259.279 214.904 317.402 213.557 321.805C212.21 326.209 219.199 338.104 219.199 338.104C218.213 343.282 223.245 351.298 223.245 351.298C223.245 351.298 224.465 358.391 224.72 361.085C224.729 361.21 224.755 361.332 224.797 361.45C225.607 363.989 232.202 366.291 234.89 367.691C237.706 369.157 246.785 382.008 246.785 382.008C248.753 391.424 219.088 409.172 216.267 407.922Z" fill="#FF748E"/>
<path opacity="0.1" d="M177.286 298.559C177.286 298.559 199.351 321.794 205.11 321.794C210.869 321.794 177.286 298.559 177.286 298.559Z" fill="black"/>
<path d="M216.267 407.922C213.446 406.693 208.297 407.429 199.473 404.74C190.649 402.052 188.942 389.936 188.942 389.936V389.897C194.79 386.025 209.6 375.087 215.436 371.087C219.543 368.282 222.896 364.161 224.858 361.428C225.668 363.967 232.263 366.269 234.951 367.668C237.767 369.134 246.846 381.986 246.846 381.986C248.753 391.424 219.088 409.172 216.267 407.922Z" fill="#FF748E"/>
<g opacity="0.1">
<path d="M135.827 192.63C135.855 192.675 135.894 192.713 135.927 192.758C136.093 192.547 136.265 192.337 136.443 192.138C136.254 192.321 136.048 192.486 135.827 192.63Z" fill="black"/>
<path d="M148.686 217.991C148.919 214.92 150.565 212.215 152.106 209.515C151.097 209.128 150.088 208.735 149.091 208.326C149.186 207.705 149.234 207.078 149.235 206.45C147.677 209.216 145.981 211.938 145.743 215.053C145.46 218.749 147.284 222.245 148.902 225.564C155.132 238.399 158.973 253.414 154.29 266.891C152.256 272.744 148.747 277.956 146.181 283.615C141.697 293.638 140.378 304.786 142.401 315.576C143.67 322.286 146.242 328.92 145.61 335.719C144.501 347.42 134.397 356.128 124.265 362.108C120.125 364.554 115.286 366.794 110.658 366.634C110.23 367.322 109.752 367.978 109.228 368.598C115.042 371.159 121.732 368.277 127.203 365.046C137.34 359.071 147.467 350.385 148.575 338.662C149.207 331.863 146.635 325.23 145.361 318.519C143.337 307.731 144.652 296.583 149.13 286.559C151.679 280.904 155.226 275.687 157.238 269.834C161.922 256.357 158.075 241.343 151.851 228.508C150.238 225.166 148.403 221.686 148.686 217.991Z" fill="black"/>
<path d="M224.565 132.765C224.019 132.207 223.434 131.689 222.813 131.216C229.531 139.913 219.831 147.304 219.349 156.665C218.917 165.129 219.626 184.061 210.231 188.299C205.587 190.395 200.604 185.803 195.51 185.693C191.835 185.615 188.477 187.944 186.232 190.843C183.987 193.742 182.607 197.195 180.983 200.481C179.501 203.463 177.797 206.329 175.884 209.056C174.775 210.677 173.478 212.292 171.716 213.205C168.667 214.793 164.959 213.902 161.672 212.873C158.476 211.87 155.31 210.764 152.172 209.554C152.166 210.13 152.118 210.705 152.028 211.274C156.163 212.956 160.359 214.465 164.616 215.8C167.897 216.829 171.605 217.72 174.659 216.132C176.416 215.219 177.691 213.598 178.827 211.977C180.741 209.254 182.444 206.389 183.921 203.407C185.55 200.121 186.925 196.663 189.175 193.765C191.425 190.866 194.779 188.542 198.448 188.619C203.547 188.73 208.53 193.322 213.174 191.225C222.569 186.987 221.854 168.056 222.292 159.591C222.802 149.749 233.532 142.081 224.565 132.765Z" fill="black"/>
</g>
<path opacity="0.1" d="M151.53 210.461C151.058 211.291 150.598 212.121 150.177 212.973C150.016 213.299 149.861 213.637 149.723 213.974C146.818 211.053 139.746 204.11 135.8 201.958C136.759 199.905 138.01 198.001 139.513 196.304C139.513 196.304 148.919 201.266 151.53 210.461Z" fill="black"/>
<path d="M151.79 210.008C149.612 200.166 139.513 194.838 139.513 194.838C138.009 196.534 136.758 198.438 135.8 200.492C139.962 202.766 147.633 210.389 150.177 212.973L151.79 210.008Z" fill="#FF748E"/>
<defs>
<linearGradient id="paint0_linear_1_100" x1="404.627" y1="52.7837" x2="404.627" y2="42.6152" gradientUnits="userSpaceOnUse">
<stop stop-color="#808080" stop-opacity="0.25"/>
<stop offset="0.54" stop-color="#808080" stop-opacity="0.12"/>
<stop offset="1" stop-color="#808080" stop-opacity="0.1"/>
</linearGradient>
<linearGradient id="paint1_linear_1_100" x1="311.955" y1="433.005" x2="311.955" y2="-0.00034319" gradientUnits="userSpaceOnUse">
<stop stop-color="#808080" stop-opacity="0.25"/>
<stop offset="0.54" stop-color="#808080" stop-opacity="0.12"/>
<stop offset="1" stop-color="#808080" stop-opacity="0.1"/>
</linearGradient>
</defs>
</svg>
